<svg width="470" height="958" viewBox="0 0 470 958" fill="none" xmlns="http://www.w3.org/2000/svg">
<ellipse cx="224.5" cy="930.5" rx="178.5" ry="27.5" fill="#D9D9D9"/>
<rect x="192.489" width="62.5065" height="926.568" fill="#845F00"/>
<rect x="192.489" width="62.5065" height="926.568" fill="#845F00"/>
<rect x="192.489" width="62.5065" height="926.568" fill="#845F00"/>
<rect x="192.489" width="62.5065" height="926.568" fill="#845F00"/>
<rect x="192.489" width="18.3843" height="926.568" fill="#A97D0B"/>
<path d="M449 174.709V332.291C448.961 341.44 445.315 350.205 438.854 356.684L327.684 467.854C321.205 474.315 312.44 477.961 303.291 478H145.709C136.56 477.961 127.795 474.315 121.316 467.854L10.1457 356.684C3.68477 350.205 0.0391924 341.44 0 332.291V174.709C0.0391924 165.56 3.68477 156.795 10.1457 150.316L121.316 39.1457C127.795 32.6848 136.56 29.0392 145.709 29H303.291C312.44 29.0392 321.205 32.6848 327.684 39.1457L438.854 150.316C445.315 156.795 448.961 165.56 449 174.709Z" fill="black"/>
<path d="M434 179.649V326.351C433.964 334.869 430.57 343.028 424.555 349.06L321.06 452.555C315.028 458.57 306.869 461.964 298.351 462H151.649C143.131 461.964 134.972 458.57 128.94 452.555L25.4452 349.06C19.4304 343.028 16.0365 334.869 16 326.351V179.649C16.0365 171.131 19.4304 162.972 25.4452 156.94L128.94 53.4452C134.972 47.4304 143.131 44.0365 151.649 44H298.351C306.869 44.0365 315.028 47.4304 321.06 53.4452L424.555 156.94C430.57 162.972 433.964 171.131 434 179.649Z" fill="#F7F2C9"/>
<path d="M416.777 186.6V320.806C416.744 328.598 413.639 336.063 408.137 341.58L313.458 436.259C307.94 441.761 300.476 444.866 292.683 444.9H158.478C150.686 444.866 143.221 441.761 137.704 436.259L43.0249 341.58C37.5224 336.063 34.4177 328.598 34.3843 320.806V186.6C34.4177 178.808 37.5224 171.344 43.0249 165.826L137.704 71.1472C143.221 65.6447 150.686 62.54 158.478 62.5066H292.683C300.476 62.54 307.94 65.6447 313.458 71.1472L408.137 165.826C413.639 171.344 416.744 178.808 416.777 186.6Z" fill="#F24E1E"/>
<path d="M142.476 179.1C142.852 178.849 144.544 178.724 147.552 178.724H152.064L152.628 179.288L153.192 179.852V222.34V264.64H161.464H169.548V269.904V275.168H161.464H153.192V284.568C153.192 290.835 153.317 294.093 153.568 294.344L154.696 294.908C155.824 295.284 159.333 295.472 165.224 295.472H169.548V300.736V306H167.856C167.981 306 163.657 305.875 154.884 305.624C147.364 305.499 139.593 305.499 131.572 305.624L117.66 306H115.78V300.736V295.472H122.924C129.817 295.347 133.452 294.908 133.828 294.156C133.953 294.031 134.016 290.835 134.016 284.568V275.168H110.14H86.264V269.904V264.64L114.088 221.964C132.512 193.639 141.975 179.351 142.476 179.1ZM135.144 264.64V235.5V206.548L116.156 235.5L97.168 264.452L116.156 264.64H135.144ZM218.052 180.98C228.705 179.852 237.98 182.923 245.876 190.192C249.26 193.451 252.143 197.712 254.524 202.976C259.161 213.379 261.48 227.667 261.48 245.84C261.48 265.141 258.785 279.993 253.396 290.396C249.887 297.665 244.748 302.929 237.98 306.188C230.335 309.948 222.564 311.013 214.668 309.384C208.527 308.256 203.012 305.436 198.124 300.924C195.241 298.292 192.672 294.783 190.416 290.396C185.027 279.743 182.332 264.891 182.332 245.84C182.332 231.427 183.711 219.645 186.468 210.496C188.223 205.107 190.416 200.281 193.048 196.02C198.813 187.623 206.709 182.672 216.736 181.168C217.112 181.043 217.551 180.98 218.052 180.98ZM224.444 189.816C221.687 189.44 219.117 189.628 216.736 190.38C211.221 192.26 207.399 195.957 205.268 201.472C205.017 202.349 204.767 203.289 204.516 204.292C203.263 209.807 202.636 222.904 202.636 243.584C202.636 267.899 203.388 282.563 204.892 287.576C205.644 290.208 206.897 292.527 208.652 294.532C212.161 299.044 216.611 301.3 222 301.3C227.264 301.3 231.651 299.044 235.16 294.532C236.915 292.527 238.168 290.208 238.92 287.576C240.424 282.563 241.176 267.899 241.176 243.584C241.176 222.904 240.549 209.807 239.296 204.292C238.043 198.276 234.659 193.952 229.144 191.32C227.64 190.568 226.073 190.067 224.444 189.816ZM330.476 179.1C330.852 178.849 332.544 178.724 335.552 178.724H340.064L340.628 179.288L341.192 179.852V222.34V264.64H349.464H357.548V269.904V275.168H349.464H341.192V284.568C341.192 290.835 341.317 294.093 341.568 294.344L342.696 294.908C343.824 295.284 347.333 295.472 353.224 295.472H357.548V300.736V306H355.856C355.981 306 351.657 305.875 342.884 305.624C335.364 305.499 327.593 305.499 319.572 305.624L305.66 306H303.78V300.736V295.472H310.924C317.817 295.347 321.452 294.908 321.828 294.156C321.953 294.031 322.016 290.835 322.016 284.568V275.168H298.14H274.264V269.904V264.64L302.088 221.964C320.512 193.639 329.975 179.351 330.476 179.1ZM323.144 264.64V235.5V206.548L304.156 235.5L285.168 264.452L304.156 264.64H323.144Z" fill="white"/>
</svg>
