<svg width="6723" height="7508" viewBox="0 0 6723 7508" fill="none" xmlns="http://www.w3.org/2000/svg">
<path d="M-0.000116289 7508C2412.61 4301.58 -49.2648 4427.17 107.62 3814.8C264.504 3202.43 494.453 2646.01 784.338 2177.33C1074.22 1708.64 1418.37 1336.86 1797.12 1083.2C2175.87 829.552 2581.82 699 2991.77 699C3401.73 699 3807.68 829.552 4186.43 1083.2C4565.18 1336.86 4909.33 1708.64 5199.21 2177.33C5489.1 2646.01 4584.94 4711.12 4741.82 5323.49C4898.71 5935.86 5456 6845.18 5456 7508H2771.25L-0.000116289 7508Z" fill="url(#paint0_linear_517_249)"/>
<path d="M139 7508C2951.43 3972.41 81.5715 4110.9 264.455 3435.66C447.338 2760.43 715.397 2146.89 1053.32 1630.09C1391.24 1113.29 1792.42 703.337 2233.94 423.646C2675.46 143.955 3148.68 -3.19473e-05 3626.58 0C4104.48 3.19473e-05 4577.7 143.955 5019.22 423.646C5460.74 703.337 5861.92 1113.29 6199.84 1630.09C6686.5 2645 6512.12 2386.27 6695 3061.5C6814.81 3764.45 6499.19 6777.13 6499.19 7508L3369.52 7508L139 7508Z" fill="url(#paint1_linear_517_249)"/>
<defs>
<linearGradient id="paint0_linear_517_249" x1="4555.31" y1="10625.5" x2="225.176" y2="3981.45" gradientUnits="userSpaceOnUse">
<stop stop-color="#FF6363" stop-opacity="0.58"/>
<stop offset="1" stop-color="#FFDC60" stop-opacity="0.16"/>
</linearGradient>
<linearGradient id="paint1_linear_517_249" x1="3951.18" y1="10946.3" x2="-711.501" y2="3382.81" gradientUnits="userSpaceOnUse">
<stop stop-color="#A520F7"/>
<stop offset="1" stop-color="#FFBF60" stop-opacity="0.15"/>
</linearGradient>
</defs>
</svg>
