<svg width="1280" height="2278" viewBox="0 0 1280 2278" fill="none" xmlns="http://www.w3.org/2000/svg">
<path d="M-0.0357072 1109.01C-31.9021 486.793 498.492 677.693 498.492 677.693L724.506 532.318C724.506 532.318 865.649 427.708 1074.89 508.732C1284.13 589.756 1271.63 600.709 1271.63 600.709C1271.63 600.709 1374.53 539.558 1467.22 661.591C1521.77 733.4 1543.8 503.577 1533.7 926.773C1531.15 957.105 1508.09 2603.74 905.126 1802.03C302.159 1000.33 31.8307 1731.23 -0.0357072 1109.01Z" fill="#BBEEFE"/>
<path d="M57.0746 1119.51C69.3376 496.6 584.886 724.571 584.886 724.571L820.625 595.561C820.625 595.561 968.82 501.206 1171.8 596.839C1374.78 692.473 1361.53 702.514 1361.53 702.514C1361.53 702.514 1468.51 648.801 1552.33 777.09C1601.65 852.58 1639.9 624.894 1599.86 1046.31C1595.17 1076.39 1455.6 2717.26 910.903 1874.88C366.205 1032.5 44.8116 1742.42 57.0746 1119.51Z" fill="#8BE3FF"/>
</svg>
