<svg width="747" height="560" viewBox="0 0 747 560" fill="none" xmlns="http://www.w3.org/2000/svg">
<g clip-path="url(#clip0_211_736)">
<path d="M647.455 426.857H341.725C338.823 426.857 336.04 425.705 333.988 423.654C331.936 421.603 330.783 418.821 330.783 415.92V164.868C330.783 161.967 331.936 159.185 333.988 157.134C336.04 155.083 338.823 153.93 341.725 153.93H647.455C650.357 153.93 653.141 155.083 655.193 157.134C657.245 159.185 658.398 161.967 658.398 164.868V415.92C658.398 418.821 657.245 421.603 655.193 423.654C653.141 425.705 650.357 426.857 647.455 426.857Z" stroke="#B0D7C0" stroke-width="1.8" stroke-linecap="round" stroke-linejoin="round"/>
<path d="M244.63 280.951H178.83C178.019 280.946 177.243 280.621 176.669 280.048C176.096 279.475 175.771 278.699 175.766 277.889V257.91C175.771 257.099 176.096 256.324 176.669 255.75C177.243 255.177 178.019 254.853 178.83 254.847H244.63C245.441 254.853 246.216 255.177 246.79 255.75C247.363 256.324 247.688 257.099 247.694 257.91V277.889C247.688 278.699 247.363 279.475 246.79 280.048C246.216 280.621 245.441 280.946 244.63 280.951V280.951Z" stroke="#B0D7C0" stroke-width="1.8" stroke-linecap="round" stroke-linejoin="round"/>
<path d="M219.243 261.92H204.07C203.782 261.913 203.508 261.795 203.304 261.591C203.101 261.388 202.983 261.114 202.976 260.826C202.983 260.538 203.101 260.264 203.304 260.061C203.508 259.857 203.782 259.74 204.07 259.732H219.243C219.531 259.74 219.805 259.857 220.009 260.061C220.212 260.264 220.33 260.538 220.337 260.826C220.34 260.971 220.314 261.114 220.26 261.248C220.206 261.382 220.126 261.504 220.024 261.606C219.921 261.708 219.8 261.789 219.666 261.843C219.531 261.897 219.388 261.923 219.243 261.92Z" fill="white"/>
<path d="M244.63 314.347H178.83C178.019 314.341 177.243 314.017 176.669 313.444C176.096 312.871 175.771 312.095 175.766 311.285V291.305C175.771 290.495 176.096 289.719 176.669 289.146C177.243 288.573 178.019 288.249 178.83 288.243H244.63C245.441 288.249 246.216 288.573 246.79 289.146C247.363 289.719 247.688 290.495 247.694 291.305V311.285C247.688 312.095 247.363 312.871 246.79 313.444C246.216 314.017 245.441 314.341 244.63 314.347V314.347Z" stroke="#B0D7C0" stroke-width="1.8" stroke-linecap="round" stroke-linejoin="round"/>
<path d="M219.243 295.316H204.07C203.782 295.309 203.508 295.191 203.304 294.987C203.101 294.784 202.983 294.51 202.976 294.222C202.983 293.934 203.101 293.66 203.304 293.457C203.508 293.253 203.782 293.136 204.07 293.128H219.243C219.531 293.136 219.805 293.253 220.009 293.457C220.212 293.66 220.33 293.934 220.337 294.222C220.34 294.367 220.314 294.51 220.26 294.644C220.206 294.778 220.126 294.9 220.024 295.002C219.921 295.104 219.8 295.185 219.666 295.239C219.531 295.293 219.388 295.319 219.243 295.316Z" fill="white"/>
<path d="M582.458 337.972H516.657C515.847 337.966 515.071 337.642 514.497 337.069C513.924 336.496 513.599 335.72 513.594 334.91V314.93C513.599 314.12 513.924 313.344 514.497 312.771C515.071 312.198 515.847 311.874 516.657 311.868H582.458C583.268 311.874 584.044 312.198 584.618 312.771C585.191 313.344 585.516 314.12 585.521 314.93V334.91C585.531 335.314 585.459 335.717 585.309 336.093C585.158 336.469 584.933 336.811 584.646 337.097C584.36 337.384 584.018 337.609 583.642 337.759C583.266 337.91 582.863 337.982 582.458 337.972V337.972Z" stroke="#B0D7C0" stroke-width="1.8" stroke-linecap="round" stroke-linejoin="round"/>
<path d="M557.144 318.868H541.971C541.683 318.861 541.409 318.743 541.205 318.539C541.001 318.336 540.884 318.062 540.876 317.774C540.884 317.486 541.001 317.212 541.205 317.009C541.409 316.805 541.683 316.688 541.971 316.68H557.144C557.432 316.688 557.706 316.805 557.91 317.009C558.113 317.212 558.231 317.486 558.238 317.774C558.241 317.919 558.215 318.062 558.161 318.196C558.107 318.33 558.027 318.452 557.925 318.554C557.822 318.656 557.7 318.737 557.566 318.791C557.432 318.845 557.289 318.871 557.144 318.868Z" fill="white"/>
<path d="M497.982 337.972H432.182C431.371 337.966 430.595 337.642 430.022 337.069C429.449 336.496 429.124 335.72 429.118 334.91V314.93C429.124 314.12 429.449 313.344 430.022 312.771C430.595 312.198 431.371 311.874 432.182 311.868H497.982C498.793 311.874 499.569 312.198 500.142 312.771C500.716 313.344 501.04 314.12 501.046 314.93V334.91C501.056 335.314 500.984 335.717 500.833 336.093C500.683 336.469 500.458 336.811 500.171 337.097C499.884 337.384 499.543 337.609 499.166 337.759C498.79 337.91 498.387 337.982 497.982 337.972V337.972Z" stroke="#B0D7C0" stroke-width="1.8" stroke-linecap="round" stroke-linejoin="round"/>
<path d="M472.669 318.868H457.496C457.208 318.861 456.934 318.743 456.73 318.539C456.526 318.336 456.409 318.062 456.401 317.774C456.409 317.486 456.526 317.212 456.73 317.009C456.934 316.805 457.208 316.688 457.496 316.68H472.669C472.957 316.688 473.231 316.805 473.435 317.009C473.638 317.212 473.756 317.486 473.763 317.774C473.766 317.919 473.74 318.062 473.686 318.196C473.632 318.33 473.552 318.452 473.449 318.554C473.347 318.656 473.225 318.737 473.091 318.791C472.957 318.845 472.814 318.871 472.669 318.868Z" fill="white"/>
<path d="M678.313 230.42H346.394C345.507 230.411 344.659 230.054 344.031 229.427C343.404 228.8 343.048 227.953 343.038 227.066V168.951C343.048 168.065 343.404 167.217 344.031 166.59C344.659 165.963 345.507 165.607 346.394 165.597H678.313C679.2 165.607 680.048 165.963 680.675 166.59C681.302 167.217 681.659 168.065 681.668 168.951V227.066C681.659 227.953 681.302 228.8 680.675 229.427C680.048 230.054 679.2 230.411 678.313 230.42V230.42Z" stroke="#B0D7C0" stroke-width="1.8" stroke-linecap="round" stroke-linejoin="round"/>
<path d="M678.313 302.535H346.394C345.507 302.525 344.659 302.169 344.031 301.542C343.404 300.915 343.048 300.067 343.038 299.18V241.066C343.048 240.179 343.404 239.332 344.031 238.705C344.659 238.078 345.507 237.721 346.394 237.712H678.313C679.2 237.721 680.048 238.078 680.675 238.705C681.302 239.332 681.659 240.179 681.668 241.066V299.18C681.659 300.067 681.302 300.915 680.675 301.542C680.048 302.169 679.2 302.525 678.313 302.535V302.535Z" stroke="#B0D7C0" stroke-width="1.8" stroke-linecap="round" stroke-linejoin="round"/>
<path d="M372.583 193.743H365.361V230.42H372.583V193.743Z" stroke="#B0D7C0" stroke-width="1.8" stroke-linecap="round" stroke-linejoin="round"/>
<path d="M380.024 203.732H372.51V230.42H380.024V203.732Z" stroke="#B0D7C0" stroke-width="1.8" stroke-linecap="round" stroke-linejoin="round"/>
<path d="M590.263 265.785H583.041V302.462H590.263V265.785Z" stroke="#B0D7C0" stroke-width="1.8" stroke-linecap="round" stroke-linejoin="round"/>
<path d="M597.704 275.774H590.19V302.462H597.704V275.774Z" stroke="#B0D7C0" stroke-width="1.8" stroke-linecap="round" stroke-linejoin="round"/>
<path d="M575.527 265.785H568.305V302.462H575.527V265.785Z" stroke="#B0D7C0" stroke-width="1.8" stroke-linecap="round" stroke-linejoin="round"/>
<path d="M561.486 264.938L550.439 299.914L557.326 302.087L568.373 267.111L561.486 264.938Z" stroke="#B0D7C0" stroke-width="1.8" stroke-linecap="round" stroke-linejoin="round"/>
<path d="M583.041 275.774H575.527V302.462H583.041V275.774Z" stroke="#B0D7C0" stroke-width="1.8" stroke-linecap="round" stroke-linejoin="round"/>
<path d="M492.803 193.743H485.581V230.42H492.803V193.743Z" stroke="#B0D7C0" stroke-width="1.8" stroke-linecap="round" stroke-linejoin="round"/>
<path d="M500.317 203.732H492.803V230.42H500.317V203.732Z" stroke="#B0D7C0" stroke-width="1.8" stroke-linecap="round" stroke-linejoin="round"/>
<path d="M421.532 193.743H414.31V230.42H421.532V193.743Z" stroke="#B0D7C0" stroke-width="1.8" stroke-linecap="round" stroke-linejoin="round"/>
<path d="M407.514 192.847L396.468 227.823L403.355 229.996L414.401 195.02L407.514 192.847Z" stroke="#B0D7C0" stroke-width="1.8" stroke-linecap="round" stroke-linejoin="round"/>
<path d="M428.972 203.732H421.458V230.42H428.972V203.732Z" stroke="#B0D7C0" stroke-width="1.8" stroke-linecap="round" stroke-linejoin="round"/>
<path d="M590.117 198.482L590.92 187.618C590.935 187.448 590.915 187.276 590.859 187.115C590.803 186.954 590.713 186.806 590.596 186.682C590.479 186.558 590.336 186.46 590.178 186.395C590.02 186.33 589.85 186.3 589.679 186.305H583.406C583.237 186.306 583.07 186.341 582.915 186.408C582.76 186.476 582.62 186.573 582.505 186.696C582.389 186.819 582.299 186.964 582.241 187.122C582.182 187.281 582.157 187.449 582.166 187.618L582.968 198.482C582.968 198.482 576.403 202.712 576.476 206.212C576.549 208.91 578.154 221.816 578.883 227.503C578.976 228.269 579.347 228.974 579.925 229.485C580.503 229.995 581.248 230.276 582.02 230.274H591.066C591.837 230.276 592.583 229.995 593.161 229.485C593.739 228.974 594.109 228.269 594.202 227.503C594.932 221.816 596.537 208.91 596.61 206.212C596.683 202.712 590.117 198.482 590.117 198.482Z" fill="white"/>
<path d="M561.083 198.482L561.886 187.618C561.902 187.448 561.881 187.276 561.825 187.115C561.769 186.954 561.68 186.806 561.562 186.682C561.445 186.558 561.303 186.46 561.145 186.395C560.987 186.33 560.817 186.3 560.646 186.305H554.372C554.203 186.306 554.036 186.341 553.881 186.408C553.726 186.476 553.587 186.573 553.471 186.696C553.355 186.819 553.265 186.964 553.207 187.122C553.149 187.281 553.123 187.449 553.132 187.618L553.934 198.482C553.934 198.482 547.369 202.712 547.442 206.212C547.515 208.91 549.12 221.816 549.849 227.503C549.942 228.269 550.313 228.974 550.891 229.485C551.469 229.995 552.215 230.276 552.986 230.274H562.032C562.803 230.276 563.549 229.995 564.127 229.485C564.705 228.974 565.076 228.269 565.169 227.503C565.898 221.816 567.503 208.91 567.576 206.212C567.649 202.712 561.083 198.482 561.083 198.482Z" fill="white"/>
<path d="M512.833 361.666V366.625C512.833 369.833 496.711 372.458 476.723 372.458C456.735 372.458 440.613 369.833 440.613 366.625V361.666H457.61C470.326 360.5 483.121 360.5 495.836 361.666H512.833Z" fill="#22272E"/>
<path d="M476.723 367.5C496.666 367.5 512.833 364.888 512.833 361.667C512.833 358.445 496.666 355.833 476.723 355.833C456.78 355.833 440.613 358.445 440.613 361.667C440.613 364.888 456.78 367.5 476.723 367.5Z" fill="#63737A"/>
<path d="M476.723 426.417C476.502 426.42 476.282 426.38 476.076 426.297C475.871 426.214 475.684 426.091 475.528 425.934C475.371 425.778 475.248 425.591 475.165 425.386C475.082 425.181 475.041 424.961 475.045 424.739V367.573H478.474V424.739C478.469 424.964 478.42 425.186 478.329 425.392C478.239 425.599 478.109 425.785 477.946 425.94C477.783 426.096 477.592 426.218 477.382 426.3C477.172 426.382 476.948 426.421 476.723 426.417Z" fill="#22272E"/>
<path d="M476.723 424.594C476.723 424.594 456.881 426.052 450.607 439.25" stroke="#22272E" stroke-width="4" stroke-linecap="round" stroke-linejoin="round"/>
<path d="M502.912 439.25C496.565 426.052 476.796 424.594 476.796 424.594C476.796 424.594 473.513 427.146 472.127 442.24" stroke="#22272E" stroke-width="4" stroke-linecap="round" stroke-linejoin="round"/>
<path d="M472.047 449.196C474.988 449.196 477.372 446.813 477.372 443.873C477.372 440.933 474.988 438.55 472.047 438.55C469.106 438.55 466.722 440.933 466.722 443.873C466.722 446.813 469.106 449.196 472.047 449.196Z" fill="#6DAFA7"/>
<path d="M502.876 445.652C505.817 445.652 508.201 443.269 508.201 440.329C508.201 437.389 505.817 435.006 502.876 435.006C499.934 435.006 497.55 437.389 497.55 440.329C497.55 443.269 499.934 445.652 502.876 445.652Z" fill="#6DAFA7"/>
<path d="M450.6 445.623C453.541 445.623 455.925 443.24 455.925 440.3C455.925 437.36 453.541 434.977 450.6 434.977C447.659 434.977 445.275 437.36 445.275 440.3C445.275 443.24 447.659 445.623 450.6 445.623Z" stroke="#22272E" stroke-width="1.8" stroke-linecap="round" stroke-linejoin="round"/>
<path d="M277.23 163.927C277.23 163.927 283.722 177.125 288.391 189.01C293.06 200.896 293.862 211.906 289.339 214.239C282.993 217.521 275.917 217.739 267.746 202.281C259.576 186.823 265.704 151.896 277.23 163.927Z" fill="#22272E"/>
<path d="M242.287 404.989C242.36 405.864 239.734 420.666 239.88 421.76C240.026 422.854 228.719 425.698 223.247 420.812C223.247 420.812 224.05 401.489 224.05 398.573C224.05 395.656 241.776 396.823 242.287 404.989Z" fill="#F4C2C9"/>
<path d="M240.099 419.135C240.099 419.135 241.339 424.604 243.162 427.958C244.986 431.312 255.053 440.719 253.959 443.927C252.865 447.135 243.6 447.427 236.451 447.135C229.302 446.844 226.092 444.364 223.247 439.26C220.402 434.156 222.299 430.729 222.664 420.812C222.664 420.812 222.883 419.135 223.32 418.844C223.32 418.844 224.779 421.396 226.457 421.614C228.135 421.833 229.813 417.75 233.898 417.312C237.983 416.875 238.494 420.958 238.931 420.958C239.369 420.958 239.953 420.302 240.099 419.135Z" fill="#6DAFA7"/>
<path d="M246.737 434.812C246.737 434.812 241.631 432.625 232.147 436.198" stroke="#22272E" stroke-width="1.8" stroke-linecap="round" stroke-linejoin="round"/>
<path d="M244.913 430.802C244.913 430.802 239.807 428.614 230.323 432.187" stroke="#22272E" stroke-width="1.8" stroke-linecap="round" stroke-linejoin="round"/>
<path d="M278.762 402.437C278.835 403.312 276.208 418.114 276.354 419.208C276.5 420.302 265.193 423.146 259.722 418.26C259.722 418.26 260.524 398.937 260.524 396.021C260.524 393.104 278.324 394.271 278.762 402.437Z" fill="#F4C2C9"/>
<path d="M276.646 416.51C276.646 416.51 277.886 421.979 279.71 425.333C281.534 428.687 291.601 438.094 290.507 441.302C289.412 444.51 280.148 444.802 272.999 444.51C265.85 444.219 262.64 441.739 259.795 436.635C256.95 431.531 258.847 428.104 259.211 418.187C259.211 418.187 259.43 416.51 259.868 416.219C259.868 416.219 261.327 418.771 263.005 418.989C264.683 419.208 266.36 415.125 270.446 414.687C274.531 414.25 275.041 418.333 275.479 418.333C275.917 418.333 276.5 417.75 276.646 416.51Z" fill="#6DAFA7"/>
<path d="M283.212 432.26C283.212 432.26 278.105 430.073 268.622 433.646" stroke="#22272E" stroke-width="1.8" stroke-linecap="round" stroke-linejoin="round"/>
<path d="M281.461 428.25C281.461 428.25 276.354 426.062 266.871 429.635" stroke="#22272E" stroke-width="1.8" stroke-linecap="round" stroke-linejoin="round"/>
<path d="M209.679 245.083C209.679 245.083 207.49 257.844 213.764 287.812C215.661 296.927 217.193 308.812 218.287 321.281C220.84 349.719 218.652 378.739 217.339 390.187C215.442 406.594 223.831 409.729 232.877 410.458C241.922 411.187 245.278 407.031 245.716 402.437C246.154 397.844 251.552 336.594 253.594 322.739C255.637 308.885 255.856 289.927 255.199 287.156C254.543 284.385 262.421 284.969 259.138 250.698C255.929 216.281 212.305 235.969 209.679 245.083Z" fill="#0014CA"/>
<path d="M272.488 246.76C272.488 246.76 283.431 293.573 284.744 308.156C286.057 322.739 283.358 394.271 283.431 398.573C283.504 402.875 279.564 406.739 269.789 406.958C260.014 407.177 256.075 400.687 256.148 397.187C256.366 385.521 256.512 339.073 255.783 331.927C255.053 324.781 244.403 289.635 242.287 286.281C240.172 282.927 235.503 257.698 244.695 253.323C253.886 248.948 268.33 242.385 272.488 246.76Z" fill="#0014CA"/>
<path d="M258.701 153.354C258.701 153.354 240.026 152.698 231.345 151.531C222.664 150.364 206.469 150.291 200.05 163.344C193.63 176.396 213.545 182.812 213.035 192.073C212.524 201.333 211.211 217.01 211.211 217.01C211.211 217.01 209.387 234.583 207.344 241.219C205.302 247.854 209.168 251.208 210.992 251.791C212.816 252.375 231.782 256.239 246.153 255.437C260.524 254.635 272.269 251.354 273.291 248.146C274.312 244.937 272.634 235.531 273.291 225.687C273.947 215.844 275.844 198.635 275.844 192.073C275.844 185.51 279.054 168.885 275.844 162.031C272.634 155.177 264.901 153.573 258.701 153.354Z" fill="#6DAFA7"/>
<path d="M234.19 145.625C234.19 145.625 231.199 146.062 230.178 148.031C229.248 149.834 228.773 151.836 228.792 153.864C228.865 156.198 232.366 162.614 242.506 163.781C252.646 164.948 256.293 159.989 256.731 158.094C257.169 156.198 256.439 151.094 255.71 150.219C254.98 149.344 253.959 148.323 250.312 147.885C246.737 147.302 235.357 145.187 234.19 145.625Z" fill="#22272E"/>
<path d="M248.853 189.958C250.488 188.244 251.999 186.417 253.375 184.489C254.907 182.156 256.95 179.604 258.628 178.656C260.306 177.708 263.807 177.052 264.755 176.541C265.704 176.031 266.798 177.854 264.755 179.531C262.713 181.208 263.588 186.093 260.743 188.718C257.898 191.343 249.874 192.948 248.853 189.958Z" fill="#B28D93"/>
<path d="M270.081 146.791L306.92 144.385C307.177 144.369 307.434 144.409 307.673 144.505C307.912 144.6 308.126 144.747 308.301 144.936C308.476 145.124 308.606 145.349 308.683 145.595C308.759 145.84 308.78 146.1 308.744 146.354L299.698 201.916C299.605 202.514 299.319 203.065 298.885 203.486C298.451 203.907 297.891 204.175 297.291 204.25L262.056 209.062C261.797 209.091 261.535 209.062 261.288 208.978C261.041 208.894 260.815 208.756 260.628 208.575C260.44 208.394 260.294 208.175 260.2 207.931C260.107 207.688 260.068 207.427 260.087 207.166L267.528 149.271C267.564 148.612 267.847 147.992 268.32 147.533C268.793 147.073 269.422 146.809 270.081 146.791Z" fill="#FFDC60"/>
<path d="M296.124 146.937L282.19 147.666C282.068 147.669 281.947 147.646 281.835 147.598C281.723 147.551 281.622 147.48 281.539 147.39C281.456 147.3 281.393 147.194 281.355 147.078C281.316 146.963 281.303 146.84 281.315 146.719L281.534 145.26C281.568 144.989 281.696 144.738 281.896 144.551C282.096 144.365 282.355 144.254 282.628 144.239L296.561 143.51C296.683 143.508 296.805 143.531 296.917 143.578C297.029 143.626 297.13 143.697 297.213 143.787C297.296 143.876 297.359 143.983 297.397 144.098C297.436 144.214 297.449 144.337 297.437 144.458L297.218 145.916C297.172 146.183 297.04 146.426 296.842 146.611C296.645 146.795 296.392 146.91 296.124 146.937Z" fill="#6DAFA7"/>
<path d="M214.858 203.229C214.858 203.229 219.454 184.781 220.621 177.708C221.788 170.635 217.339 162.76 210.481 161.01C202.457 159.042 199.977 163.271 199.977 163.271C199.977 163.271 196.767 168.885 193.557 186.531C190.347 204.177 188.524 220.583 199.977 224.594C211.43 228.604 234.919 215.552 242.433 209.937C249.947 204.323 252.719 201.989 254.178 201.625C255.637 201.26 261.4 202.792 264.464 199.364C267.528 195.937 270.154 193.239 270.446 193.239C270.737 193.239 278.032 194.333 279.272 193.385C280.659 192.292 278.616 191.198 277.157 190.979C275.698 190.76 271.54 189.375 271.54 189.375C271.54 189.375 274.823 188.354 277.157 187.479C279.491 186.604 281.899 186.094 281.753 184.854C281.607 183.614 280.148 183.76 278.689 183.687C277.536 183.684 276.386 183.806 275.26 184.052C275.26 184.052 279.272 182.958 280.294 181.792C281.315 180.625 280.44 179.604 278.324 179.823C276.973 179.981 275.633 180.224 274.312 180.552C274.312 180.552 278.397 180.187 278.105 178.364C277.886 177.125 274.239 177.781 271.832 178.073C269.105 178.427 266.402 178.938 263.734 179.604C262.211 179.958 260.722 180.446 259.284 181.062C256.731 182.302 250.312 188.427 249.29 189.667C248.269 190.906 235.43 192.948 224.925 195.281C214.421 197.614 208.293 199.51 205.083 202.5L214.858 203.229Z" fill="#B28D93"/>
<path d="M271.977 178C269.251 178.354 266.547 178.865 263.88 179.531C262.357 179.885 260.868 180.373 259.43 180.989" stroke="#896068" stroke-width="1.8" stroke-linecap="round" stroke-linejoin="round"/>
<path d="M251.479 203.229C249.655 204.542 246.883 206.729 242.506 209.937C234.992 215.479 211.503 228.531 200.05 224.594C188.597 220.656 190.493 204.177 193.63 186.531C196.767 168.885 200.05 163.271 200.05 163.271C200.05 163.271 202.53 159.042 210.554 161.01C217.339 162.687 221.861 170.562 220.694 177.708C219.965 182.156 217.849 191.198 216.39 197.25C218.943 196.521 221.861 195.864 225.217 195.135C232.658 193.531 241.339 192 246.081 190.833C245.477 193.475 245.759 196.242 246.883 198.708C248.561 202.5 251.479 203.229 251.479 203.229Z" fill="#22272E"/>
<path d="M192.901 217.666C192.901 217.666 192.755 213.729 197.569 214.239C202.384 214.75 214.858 219.271 211.284 224.593" stroke="#63737A" stroke-width="1.8" stroke-linecap="round" stroke-linejoin="round"/>
<path d="M240.244 192.146C239.639 195.011 239.945 197.994 241.12 200.677C242.341 203.247 244.263 205.42 246.664 206.948" stroke="#63737A" stroke-width="1.8" stroke-linecap="round" stroke-linejoin="round"/>
<path d="M233.606 134.177C233.606 134.177 233.387 143.51 232.804 149.344C232.22 155.177 243.09 157.583 248.342 156.562C253.594 155.541 254.397 153.937 254.397 153.937C254.397 153.937 253.959 146.062 254.397 143.218C254.835 140.375 233.679 131.114 233.606 134.177Z" fill="#B28D93"/>
<path d="M254.251 151.823C254.178 150.656 254.178 149.125 254.178 147.594C249.728 147.812 245.789 143.729 242.579 140.375C241.704 147.375 247.758 151.896 254.251 151.823Z" fill="#896068"/>
<path d="M262.859 121.781C262.859 121.781 266.506 119.885 267.6 113.906C268.695 107.927 267.382 99.031 263.296 98.0101C259.211 96.9893 262.056 109.531 259.284 111.864C256.512 114.198 262.859 118.5 262.859 121.781Z" fill="#22272E"/>
<path d="M262.713 111.5C263.545 115.576 263.815 119.746 263.515 123.896C263.078 131.333 264.537 143.875 256.439 147.521C248.342 151.166 237.618 147.375 233.242 135.416C228.865 123.458 228.792 111.573 235.503 106.468C242.214 101.364 260.306 102.021 262.713 111.5Z" fill="#B28D93"/>
<path d="M234.117 125.864C234.117 125.864 236.597 125.062 236.67 120.614C236.743 116.166 239.077 112.375 243.892 113.687C248.707 115 255.418 118.719 259.357 118.646C264.026 118.5 265.485 113.469 265.85 107.271C266.214 101.073 264.172 97.2081 261.765 97.8643C259.357 98.5206 257.315 100.562 254.324 96.7706C250.239 91.6664 246.591 91.8123 243.673 94.2185C238.567 98.5206 239.734 100.781 235.065 98.9581C232.366 97.8643 230.469 98.156 229.156 103.187C227.843 108.219 228.354 109.604 225.217 109.166C222.08 108.729 224.05 125.354 229.156 129.073C229.229 129.073 233.168 125.5 234.117 125.864Z" fill="#22272E"/>
<path d="M259.211 127.104C259.503 127.906 259.649 128.708 259.868 129.437C260.087 130.167 260.306 130.969 260.524 131.552C260.731 131.987 260.855 132.457 260.889 132.937C260.936 133.462 260.779 133.984 260.451 134.396C260.15 134.747 259.765 135.018 259.332 135.184C258.898 135.349 258.431 135.404 257.971 135.344C258.631 135.016 259.187 134.511 259.576 133.885C259.666 133.591 259.687 133.28 259.636 132.976C259.585 132.672 259.465 132.385 259.284 132.135C258.94 131.329 258.767 130.46 258.774 129.583C258.842 128.745 258.989 127.915 259.211 127.104Z" fill="#22272E"/>
<path d="M252.135 120.76C252.285 120.782 252.438 120.765 252.58 120.71C252.721 120.655 252.845 120.564 252.941 120.446C253.037 120.329 253.1 120.188 253.125 120.039C253.15 119.889 253.136 119.736 253.084 119.594C252.865 118.937 252.719 118.354 251.989 118.208C249.634 117.816 247.218 118.31 245.205 119.594C243.236 121.052 245.132 121.344 247.612 120.833C249.109 120.593 250.632 120.568 252.135 120.76Z" fill="#22272E"/>
<path d="M248.78 135.416C252.768 135.416 256.002 132.054 256.002 127.906C256.002 123.758 252.768 120.396 248.78 120.396C244.791 120.396 241.558 123.758 241.558 127.906C241.558 132.054 244.791 135.416 248.78 135.416Z" stroke="#22272E" stroke-width="1.8" stroke-linecap="round" stroke-linejoin="round"/>
<path d="M263.88 134.76C266.459 134.76 268.549 131.691 268.549 127.906C268.549 124.12 266.459 121.052 263.88 121.052C261.302 121.052 259.211 124.12 259.211 127.906C259.211 131.691 261.302 134.76 263.88 134.76Z" stroke="#22272E" stroke-width="1.8" stroke-linecap="round" stroke-linejoin="round"/>
<path d="M259.357 126.375C259.357 126.375 258.409 125.062 255.856 126.375" stroke="#22272E" stroke-width="1.8" stroke-linecap="round" stroke-linejoin="round"/>
<path d="M241.849 125.791L233.168 125.135" stroke="#22272E" stroke-width="1.8" stroke-linecap="round" stroke-linejoin="round"/>
<path d="M253.157 140.521C252.114 140.395 251.117 140.017 250.253 139.42C249.388 138.823 248.682 138.024 248.196 137.094" stroke="#22272E" stroke-width="1.8" stroke-linecap="round" stroke-linejoin="round"/>
<path d="M249.874 130.677C250.037 130.689 250.201 130.668 250.356 130.615C250.511 130.563 250.654 130.479 250.777 130.371C250.899 130.262 250.999 130.13 251.069 129.982C251.139 129.834 251.18 129.674 251.187 129.51L251.26 128.781C251.272 128.618 251.251 128.454 251.198 128.299C251.146 128.144 251.062 128.001 250.954 127.878C250.845 127.756 250.713 127.657 250.565 127.586C250.417 127.516 250.256 127.476 250.093 127.469C249.929 127.457 249.765 127.478 249.61 127.53C249.455 127.583 249.312 127.666 249.19 127.775C249.067 127.884 248.968 128.016 248.898 128.163C248.827 128.311 248.787 128.472 248.78 128.635L248.707 129.364C248.689 129.529 248.707 129.695 248.757 129.852C248.808 130.01 248.891 130.155 249.001 130.278C249.11 130.402 249.245 130.501 249.395 130.57C249.546 130.638 249.709 130.675 249.874 130.677Z" fill="#22272E"/>
<path d="M260.67 130.896C260.834 130.907 260.998 130.887 261.153 130.834C261.308 130.781 261.451 130.698 261.573 130.589C261.696 130.481 261.795 130.348 261.866 130.201C261.936 130.053 261.976 129.892 261.983 129.729L262.056 129C262.068 128.837 262.047 128.673 261.995 128.518C261.942 128.362 261.859 128.22 261.75 128.097C261.641 127.975 261.509 127.876 261.361 127.805C261.213 127.735 261.053 127.695 260.889 127.687C260.726 127.675 260.562 127.696 260.407 127.749C260.252 127.802 260.109 127.885 259.986 127.994C259.864 128.102 259.764 128.234 259.694 128.382C259.624 128.53 259.583 128.69 259.576 128.854L259.503 129.583C259.506 129.906 259.626 130.217 259.84 130.458C260.055 130.7 260.35 130.855 260.67 130.896Z" fill="#22272E"/>
<path d="M233.825 126.083C233.825 126.083 231.71 122.437 228.865 123.385C226.02 124.333 226.092 128.708 227.479 131.333C228.254 132.699 229.415 133.808 230.815 134.521C232.216 135.234 233.795 135.52 235.357 135.343" fill="#B28D93"/>
<path d="M228.792 128.708C228.632 128.341 228.581 127.936 228.646 127.541C228.68 127.3 228.781 127.072 228.938 126.885C229.148 126.664 229.435 126.533 229.74 126.52C229.988 126.516 230.234 126.567 230.461 126.667C230.688 126.768 230.89 126.917 231.053 127.104C231.337 127.413 231.582 127.756 231.783 128.125C232.077 128.736 232.321 129.37 232.512 130.02C232.602 130.256 232.724 130.477 232.877 130.677C233.023 130.823 233.387 130.823 233.752 130.823C233.635 131 233.471 131.142 233.277 131.232C233.084 131.323 232.87 131.357 232.658 131.333C232.233 131.196 231.854 130.943 231.564 130.604C231.184 130.019 230.842 129.41 230.542 128.781C230.251 128.198 229.959 127.76 229.667 127.687C229.594 127.687 229.521 127.614 229.448 127.687C229.375 127.76 229.302 127.76 229.229 127.906C229.156 128.052 228.938 128.343 228.792 128.708Z" fill="#22272E"/>
<path d="M271.977 189.448C271.187 189.242 270.382 189.095 269.57 189.01C268.99 188.92 268.399 188.92 267.819 189.01" stroke="#896068" stroke-width="1.8" stroke-linecap="round" stroke-linejoin="round"/>
<path d="M275.333 183.979C275.333 183.979 267.892 185.583 267.236 186.094" stroke="#896068" stroke-width="1.8" stroke-linecap="round" stroke-linejoin="round"/>
<path d="M274.458 180.479C274.458 180.479 269.351 181.573 269.059 181.646C268.111 181.937 266.36 182.448 266.36 182.448" stroke="#896068" stroke-width="1.8" stroke-linecap="round" stroke-linejoin="round"/>
<path d="M216.39 275.052C216.39 275.052 224.925 271.406 224.925 259.01" stroke="#22272E" stroke-width="1.8" stroke-linecap="round" stroke-linejoin="round"/>
<path d="M504.301 309.73C507.802 318.115 514.003 331.605 513.93 346.771C513.93 365.146 491.681 372.657 489.419 375.574C487.158 378.49 440.835 381.699 436.093 372.438C431.352 363.178 431.643 353.407 444.337 330.001C452.799 314.324 451.704 309.949 451.777 309.73C451.777 309.73 452.945 310.969 453.455 306.084C453.966 301.199 502.185 304.771 504.301 309.73Z" fill="#22272E"/>
<path d="M447.108 353.407C442.586 354.136 434.999 356.542 434.196 368.574C433.394 380.605 443.023 427.271 443.169 435.511C443.315 443.751 442.513 444.115 436.896 449.146C431.278 454.178 420.117 459.646 421.066 463.511C422.014 467.376 434.78 470.657 443.169 469.126C451.558 467.594 453.455 458.042 455.06 457.24C456.665 456.438 457.686 453.449 457.905 451.553C458.124 449.657 464.033 382.719 464.616 372.876C465.419 360.699 460.385 351.292 447.108 353.407Z" fill="#F4C2C9"/>
<path d="M458.488 445.865C458.197 449.074 457.978 451.115 457.978 451.48C457.759 453.449 456.738 456.365 455.133 457.167C453.528 457.969 451.704 467.522 443.242 469.053C434.78 470.584 422.014 467.303 421.138 463.438C420.409 460.449 427.047 456.438 432.664 452.428C432.519 452.574 430.914 454.178 432.664 454.542C434.415 454.907 437.771 453.522 444.045 457.022C450.318 460.522 452.142 455.053 453.382 451.334C454.476 448.199 456.665 449.219 458.488 445.865Z" fill="#22272E"/>
<path d="M469.139 355.594C463.668 359.24 461.479 363.688 460.458 380.459C459.072 403.501 456.592 439.74 455.425 443.605C454.257 447.469 452.799 449.219 451.412 453.084C450.026 456.949 438.282 468.105 439.011 472.334C439.741 476.563 446.452 480.792 450.683 482.178C454.914 483.563 459.948 484.146 463.011 482.178C466.075 480.209 467.607 467.886 468.41 464.969C469.212 462.053 470.087 459.865 470.817 454.688C471.546 449.511 476.872 426.178 479.133 419.469C481.395 412.761 491.535 380.167 491.826 367.407C491.972 354.646 477.164 350.344 469.139 355.594Z" fill="#F4C2C9"/>
<path d="M469.139 355.594C463.668 359.24 461.48 363.688 460.458 380.459C459.072 403.501 456.592 439.74 455.425 443.605C454.258 447.469 452.799 449.219 451.413 453.084" stroke="#E86484" stroke-width="1.8" stroke-linecap="round" stroke-linejoin="round"/>
<path d="M471.619 450.094C471.265 451.609 470.997 453.143 470.817 454.688C470.16 459.792 469.212 461.98 468.41 464.969C467.607 467.959 466.148 480.282 463.084 482.178C460.021 484.074 454.987 483.563 450.756 482.178C446.525 480.792 439.814 476.563 439.084 472.407C438.573 469.344 444.555 462.709 448.422 457.751C448.203 458.042 445.431 462.199 450.391 465.844C454.695 469.053 462.72 471.022 464.762 466.209C466.805 461.397 467.899 456.876 468.847 455.417C470.091 453.828 471.03 452.024 471.619 450.094Z" fill="#22272E"/>
<path d="M457.064 468.412C457.634 466.862 456.409 464.987 454.329 464.223C452.249 463.459 450.102 464.097 449.532 465.646C448.962 467.196 450.187 469.072 452.267 469.835C454.347 470.599 456.495 469.962 457.064 468.412Z" fill="white"/>
<path d="M440.835 456.001C440.616 457.532 438.719 458.48 436.677 458.188C434.634 457.897 433.102 456.365 433.321 454.834C433.54 453.303 435.437 452.355 437.479 452.647C439.522 452.938 441.054 454.469 440.835 456.001Z" fill="white"/>
<path d="M453.528 248.771C453.528 248.771 443.607 248.917 436.896 263.719C430.184 278.521 419.534 299.376 421.066 308.199C422.598 317.021 442.951 308.199 452.58 291.646C462.209 275.094 461.261 249.209 453.528 248.771Z" fill="#E86484"/>
<path d="M461.188 219.313C461.188 219.313 456.154 219.022 454.55 212.532C452.945 206.042 459.583 197.949 465.711 195.98C471.839 194.011 473.37 197.803 477.383 198.24C481.395 198.678 492.118 197.511 496.422 207.063C500.726 216.615 493.577 225.657 499.049 232.803C504.52 239.949 509.116 253.219 492.994 258.907C476.872 264.594 458.343 260.146 452.58 249.865C446.817 239.584 457.905 233.532 459.583 228.209C461.407 222.959 462.209 221.646 461.188 219.313Z" fill="#22272E"/>
<path d="M477.528 244.98C477.528 244.98 462.647 244.834 454.549 247.897C452.142 248.772 450.099 250.303 449.516 257.886C449.005 264.74 448.64 264.667 446.744 268.022C443.753 273.417 442.513 279.615 448.276 289.678C451.996 296.24 450.829 308.563 450.245 314.761C449.662 320.959 450.391 323.73 462.428 326.792C474.464 329.855 500.288 326.792 503.206 323.876C506.124 320.959 507.437 292.084 506.854 286.469C506.27 280.855 517.067 265.907 516.264 260.001C515.462 254.094 508.459 246.001 477.528 244.98Z" fill="#FFE779"/>
<path d="M469.358 243.74C469.358 243.74 462.647 244.032 460.458 246.292C458.926 247.896 460.166 248.917 461.99 250.303C463.23 251.251 458.853 253.73 461.115 256.574C462.793 258.688 466.586 256.063 468.045 258.032C469.723 260.365 470.015 261.24 472.568 261.313C475.778 261.386 476.069 257.959 478.477 258.324C481.395 258.761 482.051 259.782 484.167 259.563C487.449 259.199 487.522 255.917 487.085 253.949C486.647 251.98 487.814 251.907 490.367 251.178C492.921 250.449 493.431 245.49 484.021 244.105C474.61 242.719 469.358 243.74 469.358 243.74Z" fill="white"/>
<path d="M485.99 230.542C485.028 235.564 484.564 240.669 484.604 245.782C483.754 248.04 482.19 249.96 480.149 251.25C478.109 252.539 475.703 253.128 473.297 252.928C465.127 252.49 467.024 245.928 467.024 245.928C467.024 245.928 468.993 238.636 469.066 236.74C469.139 234.844 483.948 228.574 485.99 230.542Z" fill="#F4C2C9"/>
<path d="M479.498 238.855C475.996 241.188 471.911 242.573 468.045 242.282L467.097 245.928C467.097 245.928 467.024 246.292 466.951 246.876C472.641 246.73 477.747 244.178 479.498 238.855Z" fill="#E86484"/>
<path d="M460.239 212.022C460.332 216.072 460.064 220.123 459.437 224.126C458.416 230.397 459.51 240.313 466.294 242.647C475.705 245.855 485.48 239.438 487.887 230.105C490.295 220.772 491.535 209.324 479.571 205.897C467.607 202.47 460.896 207.428 460.239 212.022Z" fill="#F4C2C9"/>
<path d="M459.875 214.647C459.875 214.647 459.364 212.386 461.479 211.949C463.573 211.413 465.602 210.655 467.534 209.688C468.92 209.032 470.671 209.251 472.057 212.313C475.121 218.876 478.987 228.719 487.012 225.949C487.012 225.949 490.076 226.605 490.951 221.501C491.826 216.397 491.462 209.542 482.562 205.386C473.662 201.23 463.449 204.074 461.552 206.188C458.634 209.469 459.875 214.647 459.875 214.647Z" fill="#22272E"/>
<path d="M483.583 226.969C483.583 226.969 486.866 222.449 489.93 225.074C492.994 227.699 488.763 234.334 484.532 234.115" fill="#F4C2C9"/>
<path d="M488.325 234.626C488.325 233.605 487.449 231.709 486.428 231.709C485.407 231.709 484.531 233.605 484.531 234.626C484.541 235.126 484.744 235.602 485.097 235.956C485.451 236.309 485.928 236.512 486.428 236.521C486.678 236.523 486.925 236.476 487.156 236.381C487.387 236.287 487.597 236.147 487.774 235.971C487.95 235.794 488.09 235.584 488.184 235.353C488.279 235.123 488.327 234.875 488.325 234.626Z" fill="#FFE779"/>
<path d="M488.836 228.136C488.544 227.99 488.325 227.771 488.106 227.699C488.033 227.643 487.943 227.613 487.851 227.613C487.759 227.613 487.669 227.643 487.595 227.699C487.522 227.699 487.522 227.771 487.45 227.844C487.377 227.917 487.304 227.99 487.304 228.063C487.245 228.23 487.197 228.401 487.158 228.574C487.085 229.011 487.158 229.594 487.012 230.251C486.973 230.445 486.894 230.629 486.781 230.792C486.668 230.955 486.523 231.093 486.355 231.199C486.195 231.271 486.021 231.308 485.845 231.308C485.669 231.308 485.494 231.271 485.334 231.199C485.626 231.053 485.845 230.907 485.918 230.688C485.981 230.501 486.006 230.302 485.991 230.105C485.925 229.548 485.9 228.988 485.918 228.428C485.933 228.023 486.087 227.637 486.355 227.334L486.793 226.896C487 226.791 487.221 226.717 487.45 226.678C487.657 226.672 487.862 226.723 488.042 226.826C488.222 226.929 488.371 227.079 488.471 227.261C488.59 227.373 488.684 227.508 488.747 227.659C488.81 227.81 488.84 227.973 488.836 228.136Z" fill="#22272E"/>
<path d="M462.72 223.688C462.988 224.361 463.039 225.1 462.866 225.803C462.732 226.532 462.404 227.212 461.917 227.772C461.771 227.99 461.698 227.99 461.698 228.209C461.725 228.441 461.8 228.664 461.917 228.865C462.063 229.125 462.234 229.369 462.428 229.594C462.647 229.813 462.866 230.105 463.157 230.178C462.797 230.297 462.405 230.271 462.063 230.105C461.722 229.954 461.403 229.758 461.115 229.522C460.794 229.21 460.589 228.798 460.531 228.355V227.99C460.548 227.867 460.573 227.746 460.604 227.626C460.677 227.48 460.677 227.407 460.75 227.261C460.823 227.115 460.896 227.042 460.969 226.969C461.725 225.977 462.317 224.869 462.72 223.688Z" fill="#22272E"/>
<path d="M466.002 234.042C467.669 234.216 469.34 233.747 470.671 232.73" stroke="#22272E" stroke-width="1.8" stroke-linecap="round" stroke-linejoin="round"/>
<path d="M469.139 218.147C469.092 217.908 469.093 217.662 469.143 217.424C469.193 217.186 469.291 216.96 469.431 216.761C470.015 216.032 471.911 215.959 473.37 216.907C474.829 217.855 475.413 219.167 474.975 219.313C474.319 219.532 473.662 218.657 472.13 218.511C470.598 218.365 469.431 218.949 469.139 218.147Z" fill="#22272E"/>
<path d="M461.626 217.928C461.708 217.952 461.794 217.957 461.879 217.944C461.963 217.93 462.043 217.897 462.113 217.848C462.184 217.799 462.242 217.735 462.283 217.66C462.325 217.586 462.35 217.503 462.355 217.417C462.46 216.928 462.409 216.418 462.209 215.959C461.771 215.303 460.604 216.032 460.24 216.542C459.875 217.053 460.021 217.928 460.24 217.928C460.698 217.85 461.167 217.85 461.626 217.928Z" fill="#22272E"/>
<path d="M470.598 225.001C470.733 225.014 470.869 224.999 470.998 224.958C471.127 224.917 471.246 224.85 471.349 224.761C471.451 224.673 471.534 224.564 471.593 224.442C471.652 224.321 471.686 224.188 471.692 224.053L471.765 223.469C471.778 223.335 471.764 223.199 471.723 223.07C471.682 222.941 471.615 222.822 471.526 222.719C471.437 222.617 471.329 222.534 471.207 222.475C471.085 222.416 470.952 222.382 470.817 222.376C470.682 222.363 470.546 222.377 470.417 222.418C470.288 222.46 470.169 222.526 470.067 222.615C469.964 222.704 469.881 222.812 469.822 222.934C469.763 223.056 469.729 223.188 469.723 223.324L469.65 223.907C469.637 224.042 469.651 224.178 469.693 224.307C469.734 224.436 469.801 224.555 469.889 224.657C469.978 224.759 470.087 224.843 470.209 224.902C470.33 224.961 470.463 224.994 470.598 225.001Z" fill="#22272E"/>
<path d="M461.188 224.271C461.323 224.284 461.459 224.27 461.588 224.229C461.717 224.188 461.836 224.121 461.938 224.032C462.041 223.943 462.124 223.835 462.183 223.713C462.242 223.591 462.276 223.459 462.282 223.324L462.355 222.74C462.368 222.605 462.353 222.47 462.312 222.341C462.271 222.212 462.204 222.092 462.115 221.99C462.027 221.888 461.918 221.805 461.796 221.746C461.675 221.686 461.542 221.653 461.407 221.646C461.272 221.633 461.136 221.648 461.007 221.689C460.878 221.73 460.759 221.797 460.656 221.886C460.554 221.975 460.471 222.083 460.412 222.205C460.352 222.327 460.319 222.459 460.312 222.594L460.24 223.178C460.239 223.444 460.334 223.701 460.509 223.902C460.683 224.103 460.924 224.234 461.188 224.271Z" fill="#22272E"/>
<path d="M360.472 346.592L364.703 445.467C364.729 445.717 364.704 445.97 364.629 446.21C364.554 446.45 364.431 446.673 364.267 446.864C364.103 447.055 363.902 447.211 363.676 447.321C363.45 447.432 363.204 447.496 362.952 447.508C362.487 447.473 362.052 447.267 361.729 446.931C361.406 446.595 361.218 446.151 361.202 445.685L353.834 346.519H360.472V346.592Z" fill="#B0D7C0"/>
<path d="M369.59 334.998L373.603 429.061C373.629 429.301 373.606 429.545 373.534 429.776C373.463 430.008 373.345 430.222 373.188 430.406C373.031 430.591 372.838 430.741 372.621 430.848C372.404 430.955 372.167 431.017 371.925 431.029C371.485 431.013 371.068 430.831 370.756 430.52C370.445 430.209 370.263 429.792 370.247 429.352L363.244 334.998H369.59Z" fill="#B0D7C0"/>
<path d="M294.161 346.665L280.884 444.737C280.84 444.982 280.845 445.232 280.898 445.475C280.952 445.717 281.052 445.947 281.195 446.15C281.337 446.353 281.518 446.526 281.728 446.66C281.938 446.793 282.172 446.883 282.416 446.925C282.874 446.935 283.319 446.778 283.669 446.482C284.018 446.187 284.247 445.773 284.313 445.321L300.727 347.248L294.161 346.665Z" fill="#B0D7C0"/>
<path d="M382.721 241.738C382.721 241.738 387.025 243.706 383.305 260.988C379.585 278.269 372.727 301.165 373.676 327.05C374.624 352.936 357.627 363.654 329.833 361.686C302.04 359.717 345.663 281.258 345.663 281.258C345.663 281.258 376.958 234.665 382.721 241.738Z" fill="white"/>
<path d="M308.167 246.988C308.897 243.779 310.429 238.602 316.192 236.488C321.955 234.373 382.503 235.394 383.305 242.904C384.107 250.415 368.278 285.415 368.35 310.498C368.423 335.581 372.873 356.363 343.329 360.519C313.784 364.675 282.124 358.55 285.334 348.488C288.544 338.425 298.319 324.936 301.31 297.3C304.301 269.665 305.468 259.383 308.167 246.988Z" fill="white"/>
<path d="M296.055 317.22C296.055 317.22 273.806 345.074 273.149 354.334C272.493 363.595 309.697 363.23 309.77 361.334C309.843 359.438 316.043 348.647 318.961 348.428C320.858 348.282 323.776 348.136 324.287 350.47C325.016 353.751 324.287 360.605 324.287 360.605L356.311 375.626L359.448 362.282C359.448 362.282 364.846 353.605 364.846 339.313C364.846 325.022 360.688 303.949 360.688 303.949C360.688 303.949 299.703 310.365 296.055 317.22Z" fill="#22272E"/>
<path d="M322.317 451.532C322.317 451.532 320.347 452.844 319.91 456.126C319.472 459.407 317.721 464.292 316.554 468.303C315.387 472.313 311.958 480.115 313.709 481.428C316.189 483.396 322.755 484.782 330.341 485.438C337.928 486.094 341.576 485.657 342.743 483.469C343.91 481.282 341.43 468.74 340.992 464.001C340.554 459.261 340.992 454.303 340.117 452.626C339.241 450.948 325.819 447.011 322.317 451.532Z" fill="#22272E"/>
<path d="M295.399 447.303C294.642 448.66 294.054 450.105 293.648 451.605C292.772 454.449 285.04 466.407 285.113 470.199C285.186 473.99 292.554 474.063 295.399 474.209C298.827 474.355 307.508 473.699 310.353 471.73C313.198 469.761 313.271 462.98 313.49 460.792C313.928 456.417 313.855 453.792 312.834 447.23C312.542 445.115 309.332 444.532 307.581 445.772C305.83 447.011 296.712 444.459 295.399 447.303Z" fill="#22272E"/>
<path d="M323.484 442.855C323.484 442.855 322.171 452.407 322.025 453.574C321.879 454.74 323.995 457.292 330.122 458.605C335.375 459.772 338.512 457.803 339.022 457.074C339.533 456.344 341.94 444.167 342.743 441.397C343.545 438.626 325.162 439.574 323.484 442.855Z" fill="#F4C2C9"/>
<path d="M293.648 440.813C293.648 440.813 295.618 447.522 295.618 448.397C295.618 449.272 298.973 451.095 303.642 450.949C308.311 450.803 312.25 448.251 312.25 447.011C312.25 445.772 310.864 433.886 310.864 433.886C310.864 433.886 294.086 437.459 293.648 440.813Z" fill="#F4C2C9"/>
<path d="M320.785 468.521C323.799 467.731 326.96 467.683 329.996 468.381C333.033 469.08 335.855 470.504 338.22 472.532" stroke="white" stroke-width="1.8" stroke-linecap="round" stroke-linejoin="round"/>
<path d="M323.119 463.198C323.119 463.198 331.946 461.594 337.563 466.188" stroke="white" stroke-width="1.8" stroke-linecap="round" stroke-linejoin="round"/>
<path d="M322.39 455.397C322.874 455.651 323.412 455.784 323.958 455.784C324.505 455.784 325.043 455.651 325.527 455.397C327.205 454.522 328.955 452.917 332.384 453.574C336.542 454.376 337.344 458.678 339.606 456.782C339.606 456.782 339.679 459.699 333.989 459.99C328.299 460.282 322.463 456.344 322.39 455.397Z" fill="#22272E"/>
<path d="M295.326 448.542C295.326 448.542 296.128 449.417 297.441 448.178C298.754 446.938 298.608 445.553 302.183 445.042C304.517 444.751 306.487 446.428 308.238 447.813C309.989 449.199 311.739 447.303 312.104 445.699C312.104 445.699 313.271 449.855 311.666 451.897C310.499 453.428 305.976 452.334 303.277 452.407C300.578 452.48 294.742 451.167 294.742 451.167L295.326 448.542Z" fill="#22272E"/>
<path d="M290.365 459.261C290.365 459.261 297.222 455.032 306.633 460.719" stroke="white" stroke-width="1.8" stroke-linecap="round" stroke-linejoin="round"/>
<path d="M293.648 454.886C293.648 454.886 299.63 450.657 307.873 456.344" stroke="white" stroke-width="1.8" stroke-linecap="round" stroke-linejoin="round"/>
<path d="M332.895 346.24C332.895 346.24 324.068 347.48 323.484 369.501C322.901 391.522 321.077 426.886 318.597 431.845C316.116 436.803 316.992 442.636 321.587 444.97C326.183 447.303 331.509 450.001 338.22 449.272C344.931 448.542 348.141 444.678 348.141 436.876C348.141 429.074 350.986 407.199 355.363 389.407C359.74 371.615 362.658 354.043 353.758 347.699C344.858 341.355 332.895 346.24 332.895 346.24Z" fill="#22272E"/>
<path d="M280.59 344.49C280.59 344.49 267.313 346.167 274.827 379.053C282.341 411.938 287.374 429.22 286.207 434.251C285.04 439.282 288.687 441.98 292.845 442.928C297.004 443.876 304.955 443.73 309.478 441.178C314.001 438.626 314.511 434.542 312.688 426.74C310.864 418.938 310.426 387.73 310.207 377.011C309.989 366.292 312.688 348.063 299.703 342.813C286.718 337.563 280.59 344.49 280.59 344.49Z" fill="#22272E"/>
<path d="M288.906 366.219C294.748 366.219 299.484 361.551 299.484 355.792C299.484 350.034 294.748 345.365 288.906 345.365C283.064 345.365 278.329 350.034 278.329 355.792C278.329 361.551 283.064 366.219 288.906 366.219Z" stroke="#63737A" stroke-width="1.8" stroke-linecap="round" stroke-linejoin="round"/>
<path d="M341.211 374.24C347.053 374.24 351.788 369.572 351.788 363.813C351.788 358.055 347.053 353.386 341.211 353.386C335.369 353.386 330.633 358.055 330.633 363.813C330.633 369.572 335.369 374.24 341.211 374.24Z" stroke="#63737A" stroke-width="1.8" stroke-linecap="round" stroke-linejoin="round"/>
<path d="M365.576 208.501C365.576 208.501 369.88 207.115 371.266 203.98C372.652 200.844 372.506 191.365 369.953 188.376C367.399 185.386 360.25 186.699 355.728 185.386C351.205 184.074 348.068 181.157 339.679 182.761C331.29 184.365 323.557 191.876 323.192 195.959C322.827 200.042 325.235 201.719 324.359 204.344C323.484 206.969 322.317 209.522 326.402 213.532C330.487 217.542 328.882 220.167 331.946 220.167C335.01 220.167 329.466 210.834 333.405 202.813C337.344 194.792 363.387 199.459 365.576 208.501Z" fill="#22272E"/>
<path d="M280.809 256.772C280.809 256.772 271.179 269.459 269.502 279.011C267.824 288.563 273.003 294.761 279.423 295.782C285.842 296.803 307.362 268.73 308.384 263.042C309.405 257.355 283.873 252.324 280.809 256.772Z" fill="#F4C2C9"/>
<path d="M311.521 231.98C311.521 231.98 306.633 230.594 294.888 240.73C285.04 249.188 277.234 257.282 277.234 257.282C277.234 257.282 297.952 276.094 300.797 280.98C300.797 280.98 313.563 266.251 314.657 251.376C315.752 236.501 313.344 231.397 311.521 231.98Z" fill="#0014CA"/>
<path d="M280.809 253.928C280.809 253.928 295.763 265.959 303.861 277.042" stroke="#22272E" stroke-width="1.8" stroke-linecap="round" stroke-linejoin="round"/>
<path d="M305.757 238.178C307.581 234.095 311.229 231.105 315.751 230.959C320.128 230.813 326.767 230.886 336.396 231.542C357.114 233.001 373.089 238.907 377.321 241.97C381.552 245.032 376.372 263.99 371.995 274.49C367.618 284.99 362.877 294.542 362.074 298.188C361.272 301.834 364.19 319.042 362.658 322.542C361.126 326.042 344.858 332.095 324.141 330.928C303.423 329.761 294.815 323.053 294.158 320.574C293.502 318.095 296.128 296.584 297.368 289.22C298.608 281.855 299.484 265.667 299.63 263.334C300.943 248.313 303.861 242.407 305.757 238.178Z" fill="#0014CA"/>
<path d="M396.214 272.084C391.035 263.188 373.089 280.907 373.527 284.845C373.527 284.845 376.737 291.553 376.737 292.282C376.737 293.011 373.527 311.459 371.339 321.813C370.682 325.022 368.712 328.595 366.305 332.022C371.948 334.162 377.754 335.845 383.667 337.053C391.4 323.563 400.3 302.928 401.686 297.824C404.239 288.272 401.394 280.98 396.214 272.084Z" fill="#F4C2C9"/>
<path d="M376.737 292.282C377.695 290.261 379.354 288.655 381.406 287.761" stroke="#E86484" stroke-width="1.8" stroke-linecap="round" stroke-linejoin="round"/>
<path d="M377.321 241.897C377.321 241.897 383.23 245.178 389.066 255.022C394.902 264.865 399.424 273.834 399.424 273.834L373.746 287.251C373.746 287.251 366.305 275.074 363.242 269.605C360.178 264.136 359.886 252.907 364.19 246.636C368.348 240.438 375.278 240.511 377.321 241.897Z" fill="#0014CA"/>
<path d="M371.339 283.386C371.339 283.386 386.293 273.542 397.309 269.896" stroke="#22272E" stroke-width="1.8" stroke-linecap="round" stroke-linejoin="round"/>
<path d="M369.88 325.896C369.88 325.896 359.594 326.917 357.259 328.23C354.925 329.542 351.424 337.49 351.715 338.219C352.007 338.949 354.196 338.219 354.196 338.219C354.196 338.219 353.904 339.751 355.655 339.751C357.405 339.751 357.697 339.021 357.697 339.021C357.648 339.265 357.659 339.517 357.728 339.755C357.798 339.993 357.924 340.211 358.096 340.39C358.268 340.57 358.481 340.704 358.716 340.783C358.952 340.862 359.203 340.883 359.448 340.844C361.491 340.699 365.722 337.053 365.722 337.053C365.722 337.053 363.46 341.063 364.846 342.011C366.232 342.959 369.223 339.605 369.661 338.949C370.099 338.292 381.697 345.292 386.147 332.386C386.147 332.386 377.758 323.271 369.88 325.896Z" fill="#F4C2C9"/>
<path d="M326.621 230.521C326.621 230.521 323.119 230.886 322.39 231.542C321.66 232.199 319.472 237.886 322.39 243.792C325.308 249.699 333.77 252.615 342.378 249.917C350.986 247.219 354.634 238.98 354.342 236.428C354.05 233.876 352.518 233.074 349.381 232.271C346.244 231.469 326.621 230.521 326.621 230.521Z" fill="#0192F9" fill-opacity="0.94"/>
<path d="M330.779 212.219C330.779 212.219 330.998 218.928 329.32 224.396C328.663 226.502 327.783 228.531 326.694 230.449C326.101 231.511 325.705 232.672 325.527 233.876C325.089 236.865 325.308 242.042 330.779 244.521C339.533 248.459 348.725 241.24 349.965 235.48C349.965 235.48 350.475 229.501 351.788 227.094C353.102 224.688 335.01 209.959 330.779 212.219Z" fill="#F4C2C9"/>
<path d="M349.381 237.157C349.629 236.618 349.824 236.056 349.965 235.48C350.035 234.574 350.157 233.674 350.329 232.782C347.395 232.283 344.588 231.207 342.071 229.618C339.554 228.028 337.378 225.956 335.667 223.521C336.104 230.667 342.232 236.136 349.381 237.157Z" fill="#E86484"/>
<path d="M275.848 294.615C275.848 294.615 279.423 298.626 295.326 294.615C311.229 290.605 331.727 279.522 334.791 278.428C337.855 277.334 339.022 277.845 342.305 277.845C350.11 277.99 353.32 277.261 354.342 276.751C356.384 275.73 357.332 274.199 356.968 272.886C356.603 271.574 357.697 271.209 357.916 270.043C358.281 267.855 357.478 267.563 357.697 267.418C357.916 267.272 360.105 266.615 360.542 266.032C361.636 264.355 360.761 263.261 360.761 263.261C362.751 262.77 364.775 262.429 366.816 262.24C370.099 261.949 372.068 260.782 371.12 259.615C370.172 258.449 363.752 258.813 359.594 258.813C355.436 258.813 353.977 258.886 353.685 258.74C352.08 258.23 348.943 257.282 347.411 257.428C345.879 257.574 344.129 258.813 341.138 260.418C337.747 262.203 334.144 263.55 330.414 264.428C327.059 265.303 304.517 267.053 290.584 269.678C288.614 270.043 286.791 270.407 285.259 270.845C283.731 271.217 282.242 271.73 280.809 272.376C273.222 276.459 266.584 287.178 275.848 294.615Z" fill="#F4C2C9"/>
<path d="M360.688 263.261C360.688 263.261 358.792 262.969 358.135 262.824C357.556 262.728 356.971 262.679 356.384 262.678" stroke="#E86484" stroke-width="1.8" stroke-linecap="round" stroke-linejoin="round"/>
<path d="M357.697 267.417C357.697 267.417 356.384 267.782 355.874 268.001" stroke="#E86484" stroke-width="1.8" stroke-linecap="round" stroke-linejoin="round"/>
<path d="M356.968 272.084C356.329 272.458 355.672 272.799 354.998 273.105" stroke="#E86484" stroke-width="1.8" stroke-linecap="round" stroke-linejoin="round"/>
<path d="M334.791 278.428C329.174 271.792 332.019 263.99 332.019 263.99L325.745 265.157C322.171 273.98 328.517 281.417 328.517 281.417L334.791 278.428Z" fill="#22272E"/>
<path d="M353.612 258.74C353.612 258.74 349.673 258.813 349.016 259.105" stroke="#E86484" stroke-width="1.8" stroke-linecap="round" stroke-linejoin="round"/>
<path d="M290.584 269.678C288.614 270.042 286.791 270.407 285.259 270.844C283.731 271.217 282.242 271.729 280.809 272.376" stroke="#E86484" stroke-width="1.8" stroke-linecap="round" stroke-linejoin="round"/>
<path d="M331.873 272.084C331.873 271.334 331.651 270.601 331.234 269.978C330.817 269.354 330.225 268.868 329.532 268.581C328.838 268.294 328.076 268.219 327.34 268.365C326.604 268.512 325.928 268.873 325.398 269.403C324.867 269.933 324.506 270.609 324.36 271.344C324.213 272.08 324.288 272.842 324.575 273.535C324.862 274.228 325.349 274.82 325.973 275.237C326.596 275.653 327.33 275.876 328.08 275.876C329.077 275.847 330.025 275.438 330.73 274.733C331.435 274.028 331.844 273.08 331.873 272.084Z" fill="white"/>
<path d="M366.451 196.105C366.451 196.105 368.056 200.917 365.795 208.063C363.533 215.209 362.001 217.907 360.105 223.594C358.208 229.282 353.612 234.24 345.807 233.438C337.636 232.563 331.217 225.126 330.852 215.865C330.487 206.605 329.685 192.167 340.7 189.615C351.57 187.136 364.554 193.626 366.451 196.105Z" fill="#F4C2C9"/>
<path d="M359.229 211.563C359.203 212.392 359.252 213.222 359.375 214.042C359.448 214.407 359.521 214.844 359.594 215.209C359.667 215.428 359.667 215.574 359.74 215.792L359.813 216.084L359.886 216.449C360.032 216.973 360.032 217.528 359.886 218.053C359.692 218.568 359.333 219.003 358.864 219.292C358.461 219.528 358.014 219.681 357.551 219.744C357.088 219.806 356.617 219.777 356.165 219.657C356.903 219.377 357.592 218.984 358.208 218.49C358.438 218.285 358.598 218.012 358.663 217.711C358.729 217.41 358.697 217.095 358.573 216.813L358.5 216.594L358.427 216.23C358.354 216.011 358.354 215.792 358.281 215.574C358.22 215.114 358.196 214.651 358.208 214.188C358.354 213.25 358.703 212.354 359.229 211.563Z" fill="#22272E"/>
<path d="M332.749 207.626C332.749 207.626 335.156 207.042 336.688 200.699C336.688 200.699 337.199 199.24 339.752 201.209C342.305 203.178 346.536 206.386 353.977 202.886C361.418 199.386 362.366 198.22 363.387 199.459C363.387 199.459 364.482 205.001 368.275 203.251C372.068 201.501 370.026 191.657 357.478 188.449C344.931 185.24 336.031 186.334 332.019 193.334C328.007 200.334 329.539 207.188 332.749 207.626Z" fill="#22272E"/>
<path d="M355.655 205.292C355.95 204.958 356.137 204.542 356.189 204.099C356.241 203.655 356.157 203.207 355.946 202.813C355.144 201.574 349.673 200.699 348.36 201.792C347.047 202.886 350.329 203.032 351.861 203.761C353.393 204.49 355.217 205.803 355.655 205.292Z" fill="#22272E"/>
<path d="M362.439 208.428C362.638 207.912 363.031 207.493 363.533 207.261C364.336 206.897 366.014 208.574 365.722 209.667C365.43 210.761 364.627 209.521 363.898 209.376C363.168 209.084 362.22 208.865 362.439 208.428Z" fill="#22272E"/>
<path d="M351.496 209.522C351.55 209.378 351.573 209.226 351.565 209.073C351.557 208.92 351.517 208.771 351.449 208.634C351.38 208.497 351.284 208.376 351.167 208.278C351.05 208.18 350.914 208.107 350.767 208.063C350.624 208.01 350.471 207.987 350.318 207.995C350.165 208.003 350.016 208.043 349.879 208.111C349.742 208.18 349.621 208.275 349.523 208.393C349.424 208.51 349.351 208.646 349.308 208.792L349.162 209.157L351.278 209.959L351.496 209.522Z" fill="#22272E"/>
<path d="M362.439 213.605C362.487 213.461 362.506 213.31 362.495 213.159C362.484 213.008 362.444 212.86 362.376 212.725C362.309 212.589 362.215 212.469 362.1 212.369C361.986 212.27 361.853 212.194 361.709 212.147C361.566 212.099 361.414 212.08 361.263 212.09C361.112 212.101 360.964 212.141 360.829 212.209C360.693 212.277 360.573 212.371 360.473 212.485C360.374 212.599 360.298 212.732 360.25 212.876L360.104 213.24L362.22 214.042L362.439 213.605Z" fill="#22272E"/>
<path d="M334.062 208.865C334.062 208.865 332.822 203.907 329.174 203.98C325.527 204.053 323.849 213.969 332.238 215.501" fill="#F4C2C9"/>
<path d="M328.59 208.501C328.576 208.126 328.707 207.761 328.955 207.48C329.04 207.39 329.141 207.318 329.254 207.268C329.367 207.218 329.488 207.191 329.612 207.188C329.838 207.194 330.061 207.243 330.268 207.334C330.341 207.334 330.487 207.48 330.56 207.553C330.633 207.626 330.706 207.772 330.779 207.844C330.852 207.917 330.852 208.063 330.925 208.136C330.998 208.209 330.998 208.355 330.998 208.428C331.056 208.74 331.08 209.058 331.071 209.376V211.053C331.076 211.289 331.152 211.517 331.29 211.709C331.459 211.934 331.686 212.111 331.946 212.219C331.786 212.292 331.612 212.329 331.435 212.329C331.259 212.329 331.085 212.292 330.925 212.219C330.553 212.044 330.265 211.73 330.122 211.344C329.861 210.722 329.737 210.051 329.758 209.376C329.758 208.792 329.685 208.136 329.685 208.136C329.635 208.066 329.57 208.01 329.493 207.972C329.417 207.934 329.332 207.915 329.247 207.917C329.043 208.128 328.823 208.323 328.59 208.501Z" fill="#22272E"/>
<path d="M351.278 224.397C351.559 224.007 351.803 223.592 352.007 223.157C352.081 223.01 352.122 222.849 352.128 222.685C352.134 222.521 352.105 222.358 352.043 222.206C351.981 222.054 351.887 221.917 351.767 221.805C351.648 221.692 351.506 221.606 351.351 221.553C350.35 221.132 349.416 220.567 348.579 219.876C346.317 218.053 345.296 219.657 345.442 221.699C347.63 221.917 349.6 223.303 351.278 224.397Z" fill="#22272E"/>
<path d="M345.442 221.626C345.588 223.376 346.536 225.49 348.433 225.782C348.99 225.849 349.555 225.754 350.06 225.508C350.564 225.263 350.987 224.877 351.278 224.397C349.6 223.303 347.63 221.917 345.442 221.626Z" fill="#E86484"/>
<path d="M136.196 382.229L131.965 470.021C131.949 470.258 131.982 470.496 132.063 470.72C132.145 470.944 132.272 471.148 132.437 471.32C132.601 471.491 132.8 471.627 133.021 471.717C133.241 471.807 133.478 471.85 133.716 471.844C134.156 471.845 134.58 471.681 134.905 471.384C135.229 471.087 135.43 470.678 135.467 470.24L142.834 382.156H136.196V382.229Z" fill="#B0D7C0"/>
<path d="M177.85 382.229L182.081 470.021C182.097 470.258 182.064 470.496 181.983 470.72C181.902 470.944 181.774 471.148 181.61 471.32C181.445 471.491 181.246 471.627 181.025 471.717C180.805 471.807 180.568 471.85 180.33 471.844C179.89 471.845 179.466 471.681 179.141 471.384C178.817 471.087 178.616 470.678 178.58 470.24L171.212 382.156H177.85V382.229Z" fill="#B0D7C0"/>
<path d="M164.646 364.948L164.573 452.812C164.575 453.049 164.528 453.283 164.436 453.501C164.344 453.718 164.208 453.915 164.037 454.079C163.867 454.242 163.665 454.37 163.443 454.453C163.222 454.536 162.986 454.573 162.75 454.562C162.319 454.52 161.916 454.33 161.61 454.024C161.304 453.719 161.114 453.316 161.072 452.885L158.008 364.583L164.646 364.948Z" fill="#B0D7C0"/>
<path d="M180.768 373.698C172.545 372.627 164.258 372.115 155.965 372.167C147.673 372.118 139.386 372.629 131.163 373.698H117.448V378.656C117.448 382.229 134.664 385.146 155.965 385.146C177.267 385.146 194.483 382.229 194.483 378.656V373.698H180.768Z" fill="#22272E"/>
<path d="M155.965 380.187C177.238 380.187 194.483 377.282 194.483 373.698C194.483 370.114 177.238 367.208 155.965 367.208C134.693 367.208 117.448 370.114 117.448 373.698C117.448 377.282 134.693 380.187 155.965 380.187Z" fill="#63737A"/>
<path d="M216.921 326.083L207.205 455.584C207.187 455.844 207.225 456.105 207.317 456.35C207.409 456.596 207.552 456.821 207.738 457.012C207.925 457.204 208.15 457.356 208.4 457.462C208.65 457.567 208.92 457.623 209.194 457.625C209.699 457.637 210.19 457.461 210.561 457.135C210.932 456.808 211.156 456.356 211.183 455.875L222.889 326.083H216.921Z" fill="#B0D7C0"/>
<path d="M166.166 247.63C166.166 247.63 173.315 245.662 179.588 256.891C185.862 268.12 188.999 288.974 190.968 291.089C192.938 293.203 196.148 294.808 206.506 301.443C216.865 308.078 217.449 308.297 226.422 309.391C235.394 310.485 235.978 313.547 238.75 316.61C241.522 319.672 243.492 321.787 240.866 322.005C238.239 322.224 235.394 318.433 233.717 319.526C231.942 320.819 229.936 321.759 227.808 322.297C224.744 323.026 225.692 324.266 222.847 323.974C220.002 323.683 214.458 323.828 216.209 322.297C217.96 320.766 216.209 320.401 216.209 320.401C216.209 320.401 185.351 316.245 175.357 308.151C165.363 300.058 162.737 273.224 160.767 264.328C158.798 255.433 163.685 247.63 166.166 247.63Z" fill="#FFE7CA"/>
<path d="M179.515 441.37C179.515 441.37 178.567 448.37 177.254 450.485C175.941 452.599 173.752 457.849 173.825 459.089C174.044 461.349 181.047 467.11 185.132 470.61C189.217 474.11 192.573 474.255 200.16 474.839C207.746 475.422 210.81 474.255 210.81 471.922C210.81 469.589 209.278 468.495 205.923 464.63C202.567 460.766 197.315 455.297 195.564 452.162C193.813 449.026 197.315 444.287 198.92 441.37C200.524 438.453 182.871 433.13 179.515 441.37Z" fill="#22272E"/>
<path d="M198.92 441.37C197.388 444.287 193.886 449.026 195.564 452.162C195.71 452.453 195.929 452.745 196.075 453.037C195.505 452.259 194.757 451.628 193.895 451.197C193.032 450.766 192.079 450.546 191.114 450.558C187.612 450.558 185.716 454.641 183.017 452.672C181.266 451.36 179.004 449.901 177.691 449.099C178.462 446.549 179.024 443.939 179.369 441.297C182.871 433.13 200.525 438.453 198.92 441.37Z" fill="#F4C2C9"/>
<path d="M176.889 322.297C176.889 322.297 179.953 329.735 181.485 331.849C183.017 333.964 220.586 337.61 224.598 352.849C228.61 368.089 204.829 432.401 202.275 438.453C199.722 444.505 199.357 449.828 190.749 448.953C182.141 448.078 175.211 442.537 176.889 436.485C178.567 430.432 185.132 414.318 187.831 394.995C190.531 375.672 200.306 371.589 182.798 365.682C165.29 359.776 151.357 361.672 156.171 345.339C160.986 329.005 173.533 320.547 176.889 322.297Z" fill="#E86484"/>
<path d="M204.026 452.016C204.026 452.016 207.09 462.953 207.09 464.12C207.09 465.287 205.12 474.693 205.558 477.464C205.996 480.235 209.789 481.766 214.823 486.36C220.221 491.391 224.598 491.099 231.236 490.589C236.926 490.151 244.513 487.38 245.315 485.12C246.118 482.86 245.242 481.255 240.72 478.849C236.707 476.662 226.64 465.505 226.13 464.266C225.619 463.026 222.555 446.766 222.409 445.235C222.263 443.703 202.202 447.86 204.026 452.016Z" fill="#22272E"/>
<path d="M225.619 462.735C224.087 460.839 221.899 459.235 218.981 460.985C215.917 462.808 215.625 466.745 214.02 466.964C212.415 467.183 212.269 464.922 210.154 464.266C208.854 463.893 207.673 463.189 206.725 462.224C205.923 458.797 204.026 451.943 204.026 451.943C202.202 447.787 222.263 443.558 222.336 445.162C222.482 446.547 224.671 458.36 225.619 462.735Z" fill="#F4C2C9"/>
<path d="M230.507 470.683C230.507 470.683 226.713 469.224 219.272 472.943" stroke="white" stroke-width="1.8" stroke-linecap="round" stroke-linejoin="round"/>
<path d="M235.759 475.349C235.759 475.349 230.142 473.891 222.701 477.61" stroke="white" stroke-width="1.8" stroke-linecap="round" stroke-linejoin="round"/>
<path d="M125.533 321.13C125.533 321.13 122.031 330.318 119.916 336.078C117.8 341.839 115.101 353.651 121.156 363.203C127.211 372.755 138.882 374.433 157.63 376.766C176.16 379.026 180.172 380.485 180.172 380.485C183.131 393.16 186.834 405.65 191.26 417.891C198.117 436.412 200.67 447.203 200.962 449.828C201.254 452.453 202.64 455.005 207.236 456.099C211.832 457.193 223.795 454.568 224.598 449.245C225.4 443.922 220.221 427.662 216.865 406.078C213.51 384.495 211.978 366.412 205.631 358.026C199.284 349.641 174.263 348.766 174.263 346.36C174.263 343.953 137.715 315.297 125.533 321.13Z" fill="#E86484"/>
<path d="M216.792 406.078C213.437 384.495 211.905 366.412 205.558 358.026C199.211 349.641 175.43 347.308 174.19 346.36C170.004 343.772 165.178 342.408 160.257 342.422" stroke="#22272E" stroke-width="1.8" stroke-linecap="round" stroke-linejoin="round"/>
<path d="M121.156 349.203C121.156 349.203 133.338 348.985 136.037 335.714" stroke="#22272E" stroke-width="1.8" stroke-linecap="round" stroke-linejoin="round"/>
<path d="M180.099 380.485C180.121 379.361 180.379 378.255 180.857 377.237C181.334 376.22 182.02 375.314 182.871 374.578" stroke="#22272E" stroke-width="1.8" stroke-linecap="round" stroke-linejoin="round"/>
<path d="M205.193 463.683C205.193 463.683 203.661 459.526 191.406 462.881" stroke="white" stroke-width="1.8" stroke-linecap="round" stroke-linejoin="round"/>
<path d="M199.065 457.12C199.065 457.12 197.898 454.058 188.123 458.214" stroke="white" stroke-width="1.8" stroke-linecap="round" stroke-linejoin="round"/>
<path d="M191.698 291.089C190.081 290.936 188.452 291.186 186.956 291.818" stroke="#FFBF94" stroke-width="1.8" stroke-linecap="round" stroke-linejoin="round"/>
<path d="M170.397 212.12C170.397 212.12 175.795 207.016 173.679 200.38C171.564 193.745 164.998 193.089 159.673 194.693C154.348 196.297 139.758 193.599 134.433 201.693C129.107 209.787 132.463 217.078 129.107 219.193C125.752 221.308 121.01 222.839 121.812 228.162C122.615 233.485 136.84 241.214 132.463 247.339C128.086 253.464 123.928 267.683 140.852 275.776C157.776 283.87 158.798 264.547 159.892 253.318C160.986 242.089 157.63 229.11 162.445 224.297C167.333 219.339 171.345 216.641 170.397 212.12Z" fill="#22272E"/>
<path d="M145.74 245.005C145.74 245.005 165.071 245.443 168.427 246.974C171.782 248.506 173.314 253.683 174.336 257.62C175.357 261.558 183.017 266.297 184.403 274.974C185.789 283.651 178.348 293.714 177.983 295.318C177.618 296.922 177.545 313.256 178.421 316.61C179.296 319.964 180.828 325.433 180.682 327.839C180.536 330.245 170.324 334.985 155.15 334.11C139.977 333.235 124.074 325.578 123.563 323.901C123.052 322.224 128.086 314.349 126.7 297.87C125.314 281.391 117.435 263.672 123.198 253.901C128.961 244.276 142.822 244.933 145.74 245.005Z" fill="#22272E"/>
<path d="M145.01 231.151C145.01 231.151 145.813 239.61 145.667 245.005C145.667 245.005 147.782 249.526 154.421 250.839C162.445 252.516 164.05 247.922 162.956 245.953C162.956 245.953 161.059 238.953 160.84 234.141C160.694 229.474 145.375 230.495 145.01 231.151Z" fill="#FFE7CA"/>
<path d="M151.576 238.151C154.567 242.818 157.63 244.714 162.883 245.078C162.591 244.058 162.226 242.235 161.789 240.266C157.63 240.776 155.661 239.318 151.576 238.151Z" fill="#FFBF94"/>
<path d="M142.238 245.005C145.538 247.418 148.4 250.377 150.7 253.755C154.858 259.734 160.184 264.182 163.904 263.745C167.624 263.307 169.375 258.422 164.56 246.172C164.56 246.172 152.889 244.276 142.238 245.005Z" fill="#FFE7CA"/>
<path d="M211.029 313.985L241.595 312.089C241.96 312.089 242.397 311.287 242.543 311.579C242.58 312.015 242.58 312.454 242.543 312.891C242.549 313.129 242.471 313.361 242.324 313.547L219.272 337.172C218.802 337.651 218.23 338.017 217.598 338.244C216.967 338.471 216.292 338.554 215.625 338.485L185.57 335.495C185.43 335.493 185.294 335.45 185.177 335.373C185.061 335.295 184.969 335.186 184.913 335.058C184.452 334.318 184.061 333.537 183.746 332.724C183.746 332.506 185.424 332.506 185.643 332.36L208.987 314.787C209.569 314.316 210.282 314.036 211.029 313.985Z" fill="#63737A"/>
<path d="M224.379 310.703C224.379 310.703 223.577 310.849 223.577 312.38C223.577 313.912 224.16 317.995 222.628 318.287C221.096 318.578 220.44 316.755 219.71 315.151C218.981 313.547 216.792 313.474 215.406 311.141" fill="#FFE7CA"/>
<path d="M168.5 204.318C169.85 208.171 170.637 212.199 170.834 216.276C171.053 222.693 173.242 226.339 172.001 231.88C170.761 237.422 166.384 241.724 160.986 241.943C155.588 242.162 147.709 237.349 143.405 231.589C139.101 225.828 137.788 213.797 140.341 207.964C142.749 202.203 161.861 196.151 168.5 204.318Z" fill="#FFE7CA"/>
<path d="M170.98 210.589C169.949 210.636 168.925 210.394 168.023 209.892C167.121 209.39 166.377 208.646 165.874 207.745C165.874 207.745 161.132 218.683 153.472 219.412C148.22 219.922 147.199 217.443 145.01 219.412C142.822 221.38 149.168 232.755 147.199 242.016C145.229 251.276 135.892 253.828 129.326 248.141C121.083 240.922 130.056 239.537 131.733 229.328C133.411 219.12 131.733 211.391 137.132 205.485C142.53 199.578 147.855 195.933 156.39 196.735C164.925 197.537 168.5 198.849 170.98 210.589Z" fill="#22272E"/>
<path d="M148.439 218.026C148.439 218.026 147.928 221.891 148.147 223.13C148.366 224.37 145.886 221.745 143.624 223.422C142.384 224.37 141.217 218.391 143.624 216.568C146.031 214.745 147.345 216.276 148.439 218.026Z" fill="#22272E"/>
<path d="M147.053 223.203C147.053 223.203 144.281 219.63 141.29 221.818C138.299 224.005 142.165 230.641 146.688 230.13" fill="#FFE7CA"/>
<path d="M208.403 330.683C208.403 330.683 212.561 334.11 214.166 335.276C215.771 336.443 214.75 337.464 212.999 337.464C211.248 337.464 205.485 332.87 208.403 330.683Z" fill="#FFE7CA"/>
<path d="M214.166 341.474C214.166 341.474 214.166 340.599 211.978 339.068C209.789 337.537 206.361 334.255 205.266 333.453C204.462 332.749 203.581 332.138 202.64 331.63" stroke="#FFBF94" stroke-width="1.8" stroke-linecap="round" stroke-linejoin="round"/>
<path d="M200.379 337.391C200.379 337.391 198.701 335.933 197.898 336.151" stroke="#FFBF94" stroke-width="1.8" stroke-linecap="round" stroke-linejoin="round"/>
<path d="M152.816 294.443C151.682 294.388 150.55 294.574 149.494 294.989C148.437 295.404 147.481 296.038 146.688 296.849" stroke="#FFBF94" stroke-width="1.8" stroke-linecap="round" stroke-linejoin="round"/>
<path d="M168.135 220.141C168.646 220.797 169.083 221.453 169.521 222.037C169.725 222.337 169.97 222.607 170.251 222.839L170.615 223.203L170.834 223.349C170.907 223.422 171.053 223.495 171.126 223.641C171.466 224.078 171.647 224.618 171.637 225.172C171.614 225.642 171.463 226.096 171.199 226.485C170.781 227.259 170.072 227.836 169.229 228.089C169.698 227.48 170.045 226.787 170.251 226.047C170.364 225.789 170.409 225.507 170.384 225.226C170.358 224.946 170.262 224.676 170.105 224.443C170.105 224.37 170.032 224.37 169.959 224.297C169.876 224.207 169.777 224.133 169.667 224.078C169.501 223.927 169.354 223.755 169.229 223.568C168.958 223.237 168.737 222.869 168.573 222.474C168.302 221.725 168.154 220.937 168.135 220.141Z" fill="#22272E"/>
<path d="M165.874 233.266C165.149 233.429 164.393 233.393 163.687 233.162C162.98 232.931 162.35 232.513 161.861 231.953" stroke="#22272E" stroke-width="1.8" stroke-linecap="round" stroke-linejoin="round"/>
<path d="M160.913 223.495C161.07 223.474 161.221 223.42 161.356 223.337C161.49 223.254 161.606 223.144 161.696 223.013C161.785 222.883 161.846 222.735 161.874 222.579C161.903 222.423 161.899 222.263 161.861 222.11L161.716 221.453C161.694 221.297 161.641 221.146 161.558 221.011C161.475 220.876 161.364 220.761 161.233 220.671C161.103 220.582 160.955 220.521 160.799 220.492C160.643 220.464 160.483 220.468 160.33 220.505C160.173 220.527 160.022 220.58 159.887 220.663C159.752 220.746 159.637 220.857 159.547 220.987C159.458 221.118 159.397 221.266 159.368 221.422C159.34 221.577 159.344 221.737 159.381 221.891L159.527 222.547C159.607 222.844 159.791 223.103 160.045 223.277C160.299 223.451 160.607 223.528 160.913 223.495Z" fill="#22272E"/>
<path d="M169.813 222.037C169.97 222.016 170.12 221.962 170.255 221.879C170.39 221.796 170.506 221.685 170.595 221.555C170.685 221.424 170.746 221.276 170.774 221.121C170.803 220.965 170.798 220.805 170.761 220.651L170.615 219.995C170.594 219.838 170.54 219.688 170.457 219.553C170.374 219.418 170.264 219.302 170.133 219.213C170.002 219.124 169.854 219.063 169.699 219.034C169.543 219.006 169.383 219.01 169.229 219.047C169.072 219.068 168.922 219.122 168.787 219.205C168.652 219.288 168.536 219.399 168.447 219.529C168.357 219.66 168.296 219.808 168.268 219.963C168.239 220.119 168.244 220.279 168.281 220.433L168.427 221.089C168.494 221.394 168.674 221.661 168.932 221.837C169.189 222.014 169.504 222.085 169.813 222.037Z" fill="#22272E"/>
<path d="M160.257 215.912C160.41 215.924 160.564 215.902 160.708 215.847C160.851 215.792 160.98 215.705 161.086 215.592C161.191 215.48 161.269 215.346 161.315 215.199C161.361 215.052 161.373 214.897 161.351 214.745C161.315 214.199 161.139 213.672 160.84 213.214C160.184 212.485 157.63 212.703 155.734 214.162C153.837 215.62 153.035 217.516 153.983 217.589C154.931 217.662 156.317 216.422 157.849 216.058C158.63 215.828 159.453 215.778 160.257 215.912Z" fill="#22272E"/>
<path d="M169.813 214.818C169.749 214.861 169.675 214.889 169.598 214.897C169.521 214.905 169.443 214.894 169.371 214.866C169.299 214.837 169.235 214.791 169.185 214.732C169.135 214.673 169.1 214.602 169.083 214.526C168.938 213.943 168.792 213.068 169.011 212.849C169.375 212.412 170.47 212.703 170.688 213.36C170.907 214.016 170.98 214.38 170.761 214.38C170.542 214.38 170.178 214.526 169.813 214.818Z" fill="#22272E"/>
<path d="M142.457 225.099C142.279 224.901 142.175 224.649 142.162 224.383C142.149 224.118 142.227 223.856 142.384 223.641C142.518 223.457 142.693 223.308 142.895 223.203C142.968 223.203 143.04 223.131 143.186 223.131C143.36 223.119 143.534 223.144 143.697 223.203C143.919 223.313 144.098 223.492 144.208 223.714C144.382 223.99 144.529 224.283 144.645 224.589C144.864 225.099 144.937 225.61 145.083 225.974C145.135 226.166 145.236 226.342 145.375 226.485C145.584 226.643 145.843 226.721 146.104 226.703C145.99 226.82 145.854 226.912 145.704 226.975C145.553 227.038 145.392 227.069 145.229 227.068C145.043 227.059 144.861 227.009 144.697 226.92C144.533 226.832 144.39 226.708 144.281 226.558C143.923 226.088 143.629 225.573 143.405 225.026C143.343 224.804 143.27 224.585 143.186 224.37C143.186 224.297 143.113 224.224 143.186 224.224C143.118 224.215 143.049 224.224 142.985 224.25C142.921 224.275 142.865 224.317 142.822 224.37C142.616 224.561 142.487 224.82 142.457 225.099Z" fill="#22272E"/>
<path d="M610.247 326.083L619.964 455.584C619.982 455.844 619.943 456.105 619.852 456.35C619.76 456.596 619.617 456.821 619.43 457.012C619.244 457.204 619.019 457.356 618.769 457.462C618.518 457.567 618.248 457.623 617.975 457.625C617.469 457.637 616.979 457.461 616.608 457.135C616.236 456.808 616.013 456.356 615.985 455.875L604.28 326.083H610.247Z" fill="#B0D7C0"/>
<path d="M186.623 344.531L175.376 494.011C175.361 494.309 175.409 494.607 175.517 494.887C175.624 495.167 175.79 495.424 176.005 495.641C176.219 495.859 176.477 496.034 176.763 496.154C177.05 496.275 177.358 496.339 177.672 496.344C178.243 496.347 178.794 496.147 179.219 495.782C179.643 495.418 179.91 494.917 179.967 494.375L193.509 344.604H186.623V344.531Z" fill="#B0D7C0"/>
<path d="M640.545 344.531L651.792 494.011C651.807 494.309 651.76 494.607 651.652 494.887C651.544 495.167 651.378 495.424 651.164 495.641C650.95 495.859 650.692 496.034 650.405 496.154C650.119 496.275 649.81 496.339 649.497 496.344C648.926 496.347 648.374 496.147 647.95 495.782C647.525 495.418 647.259 494.917 647.202 494.375L633.66 344.604H640.545V344.531Z" fill="#B0D7C0"/>
<path d="M664.492 341.396H162.677L220.058 319.375H607.034L664.492 341.396Z" fill="white"/>
<path d="M664.567 341.396H162.677V346.865H664.567V341.396Z" fill="#B0D7C0"/>
<path d="M362.21 315.729H394.42C395.296 315.724 396.151 315.979 396.868 316.459L426.094 335.052C426.305 335.181 426.466 335.371 426.555 335.594C426.643 335.817 426.654 336.061 426.585 336.29C426.516 336.519 426.372 336.721 426.173 336.866C425.974 337.011 425.732 337.091 425.482 337.094H378.889C378.353 337.099 377.824 336.983 377.345 336.755C376.866 336.526 376.451 336.193 376.134 335.781L361.292 317.552C361.154 317.387 361.067 317.188 361.042 316.979C361.017 316.769 361.055 316.557 361.151 316.366C361.247 316.176 361.397 316.015 361.584 315.903C361.772 315.79 361.988 315.73 362.21 315.729Z" fill="#FFDC60"/>
<path d="M382.102 331.333H412.17" stroke="#6DAFA7" stroke-width="1.8" stroke-linecap="round" stroke-linejoin="round"/>
<path d="M403.829 325.865L397.555 321.344C397.292 321.151 396.969 321.048 396.637 321.052H388.451C388.145 321.052 388.068 321.344 388.221 321.563L392.965 325.938C393.247 326.212 393.632 326.37 394.036 326.375H403.676C403.982 326.375 404.058 326.083 403.829 325.865Z" fill="#22272E"/>
<path d="M386.844 326.375H378.582" stroke="#6DAFA7" stroke-width="1.8" stroke-linecap="round" stroke-linejoin="round"/>
<path d="M384.166 323.385H376.745" stroke="#6DAFA7" stroke-width="1.8" stroke-linecap="round" stroke-linejoin="round"/>
<path d="M335.566 336.212V336.411C335.567 336.568 335.542 336.723 335.491 336.869C335.441 337.014 335.366 337.146 335.272 337.257C335.178 337.368 335.067 337.455 334.944 337.515C334.821 337.575 334.689 337.605 334.556 337.604H286.971C286.838 337.605 286.706 337.575 286.584 337.515C286.461 337.455 286.349 337.368 286.255 337.257C286.161 337.146 286.087 337.014 286.036 336.869C285.986 336.723 285.96 336.568 285.961 336.411C285.982 335.994 286.121 335.598 286.354 335.284L295.557 324.545C295.971 324.046 296.536 323.76 297.128 323.75H328.384C328.779 323.756 329.167 323.881 329.511 324.113C329.854 324.345 330.142 324.676 330.348 325.076L335.398 335.35C335.475 335.631 335.531 335.92 335.566 336.212Z" fill="#22272E"/>
<path d="M315.233 332.719C315.233 332.938 314.774 333.156 314.162 333.156C313.55 333.156 313.091 332.938 313.091 332.719C313.091 332.5 313.55 332.281 314.162 332.281C314.774 332.281 315.233 332.5 315.233 332.719Z" fill="#63737A"/>
<path d="M420.336 306.74C420.336 306.74 420.628 315.928 433.905 316.803C447.181 317.678 472.86 314.761 477.893 313.376C482.927 311.99 482.635 303.896 479.425 301.636C476.215 299.376 456.957 298.355 447.109 296.896C444.847 296.532 442.221 296.094 439.522 295.876C437.22 295.634 434.906 295.537 432.592 295.584C425.953 295.876 420.409 298.428 420.336 306.74Z" fill="#E86484"/>
<path d="M447.035 296.896C444.774 296.532 442.148 296.094 439.449 295.876C437.147 295.634 434.832 295.537 432.519 295.584" stroke="#AE5D60" stroke-width="1.8" stroke-linecap="round" stroke-linejoin="round"/>
<path d="M512.179 254.313C514.587 255.115 516.337 257.011 519.401 266.271C523.413 278.376 528.52 304.042 525.894 310.969C523.268 317.896 518.015 321.469 500.361 322.271C482.708 323.074 465.565 321.688 463.303 321.688C461.042 321.688 457.249 313.376 459.656 307.907C459.656 307.907 474.61 304.261 483.073 302.001C491.535 299.74 500.872 297.334 504.738 296.896C504.738 296.896 498.465 281.511 496.422 276.115C494.38 270.719 496.057 261.532 500.872 257.376C505.687 253.219 510.137 253.657 512.179 254.313Z" fill="#E86484"/>
<path d="M504.666 296.896C504.666 296.896 511.888 295.438 516.192 296.896" stroke="#AE5D60" stroke-width="1.8" stroke-linecap="round" stroke-linejoin="round"/>
<path d="M461.115 308.053C461.115 308.053 457.249 308.417 453.309 308.417C449.37 308.417 444.045 309.074 442.805 309.657C441.564 310.24 429.017 322.782 429.309 324.459C429.601 326.136 431.935 325.042 433.978 323.657C436.02 322.272 439.814 318.48 440.616 317.97C439.83 319.868 439.172 321.817 438.646 323.803C437.698 327.303 436.75 330.803 437.698 331.386C438.938 332.115 440.105 330.876 440.47 330.147C440.47 330.147 440.397 331.969 441.856 332.042C443.315 332.115 444.701 329.344 445.868 327.011C446.97 325.121 448.213 323.317 449.589 321.615C449.589 321.615 448.422 325.334 447.984 327.376C447.546 329.417 447.254 331.824 448.349 332.042C450.027 332.407 451.558 327.449 452.507 325.553C453.455 323.657 457.176 324.897 459.875 323.219C461.192 322.323 462.613 321.589 464.106 321.032C464.106 321.032 465.929 319.209 465.929 315.272C465.929 311.334 462.647 307.907 461.115 308.053Z" fill="#F4C2C9"/>
<path d="M440.324 330.219C440.324 330.219 443.826 320.011 445.285 318.042C446.744 316.073 447.254 315.928 447.692 315.636" stroke="#E86484" stroke-width="1.8" stroke-linecap="round" stroke-linejoin="round"/>
<path d="M440.47 318.042C440.47 318.042 441.054 316.876 442.002 315.126C442.446 314.465 442.987 313.875 443.607 313.376" stroke="#E86484" stroke-width="1.8" stroke-linecap="round" stroke-linejoin="round"/>
<path d="M449.443 321.615C449.443 321.615 450.464 319.136 451.485 318.844" stroke="#E86484" stroke-width="1.8" stroke-linecap="round" stroke-linejoin="round"/>
<path d="M472.714 300.615C474.622 299.981 476.497 299.251 478.331 298.428C481.03 297.188 482.124 296.678 484.24 296.532C486.355 296.386 492.994 296.313 493.942 296.897C494.89 297.48 496.13 300.251 496.787 301.636C497.443 303.022 495.328 308.49 495.328 308.49C495.328 308.49 496.276 313.303 495.109 313.813C494.38 314.105 493.723 313.959 492.775 311.407C492.775 311.407 493.431 313.594 492.118 313.74C490.805 313.886 489.346 310.094 488.398 308.417C487.575 307.083 486.648 305.815 485.626 304.626C485.626 304.626 486.428 307.251 486.574 308.126C486.72 309.001 487.304 311.261 486.939 312.136C486.574 313.011 485.261 311.844 483.948 308.855C482.635 305.865 482.197 304.844 481.395 304.917C476.872 305.355 477.164 304.334 474.975 304.188L470.16 305.428C470.088 305.355 469.577 302.438 472.714 300.615Z" fill="#F4C2C9"/>
<path d="M492.775 311.334C492.775 311.334 491.316 306.594 490.805 305.136C490.177 303.746 489.445 302.406 488.617 301.125" stroke="#E86484" stroke-width="1.8" stroke-linecap="round" stroke-linejoin="round"/>
<path d="M495.328 308.417C495.328 308.417 494.453 303.313 494.088 302.074C493.834 301.296 493.517 300.54 493.14 299.813" stroke="#E86484" stroke-width="1.8" stroke-linecap="round" stroke-linejoin="round"/>
<path d="M485.553 304.553C485.553 304.553 485.115 303.094 484.896 302.657" stroke="#E86484" stroke-width="1.8" stroke-linecap="round" stroke-linejoin="round"/>
<path d="M524.505 335.928L515.751 336.584C514.99 336.657 514.222 336.582 513.49 336.366L473.513 325.428C473.071 325.3 472.682 325.032 472.406 324.663C472.13 324.295 471.981 323.847 471.981 323.387L539.97 321.709L524.505 335.928Z" fill="#63737A"/>
<path d="M514.73 333.449L531.654 288.46C531.943 287.673 532.472 286.997 533.165 286.526C533.859 286.055 534.682 285.813 535.52 285.835L604.968 287.147C605.328 287.153 605.681 287.248 605.996 287.423C606.311 287.598 606.578 287.848 606.773 288.151C606.968 288.454 607.085 288.801 607.113 289.16C607.142 289.519 607.082 289.879 606.937 290.21L590.889 329.512C590.595 330.217 590.114 330.828 589.496 331.279C588.878 331.729 588.149 332 587.387 332.064L516.918 336.512C516.553 336.502 516.195 336.409 515.873 336.238C515.55 336.067 515.272 335.823 515.06 335.526C514.847 335.229 514.707 334.887 514.65 334.526C514.593 334.166 514.62 333.797 514.73 333.449Z" fill="#22272E"/>
<path d="M517.21 336.511L515.751 336.584C514.99 336.657 514.222 336.582 513.49 336.366L473.513 325.428C473.076 325.291 472.694 325.02 472.419 324.654C472.144 324.287 471.991 323.844 471.981 323.386L515.824 333.886L517.21 336.511Z" fill="#22272E"/>
<path d="M213.582 312.089L244.586 310.776C244.765 310.772 244.942 310.821 245.093 310.918C245.244 311.015 245.362 311.155 245.433 311.32C245.504 311.485 245.523 311.667 245.489 311.843C245.455 312.019 245.369 312.181 245.242 312.308L221.388 335.787C220.907 336.268 220.32 336.631 219.674 336.846C219.029 337.062 218.341 337.123 217.668 337.026L187.248 333.308C187.068 333.29 186.898 333.218 186.76 333.102C186.622 332.986 186.523 332.83 186.476 332.656C186.428 332.482 186.435 332.298 186.494 332.128C186.554 331.958 186.664 331.81 186.81 331.703L211.394 312.818C212.029 312.351 212.794 312.096 213.582 312.089Z" fill="#22272E"/>
<path d="M128.67 250.912C126.934 251.737 125.504 253.089 124.584 254.776C121.649 260.298 120.794 266.689 122.177 272.787C124.876 285.11 131.223 303.631 134.068 308.006C136.913 312.381 150.263 321.131 159.673 326.964C169.083 332.797 176.305 336.006 178.056 337.318C179.807 338.631 183.309 341.985 189.947 342.787C196.585 343.589 198.774 341.183 200.816 341.693C202.859 342.203 206.288 344.537 208.184 344.318C210.081 344.099 209.06 342.641 208.33 341.912C207.601 341.183 203.297 337.318 203.297 337.318C205.506 338.297 207.651 339.417 209.716 340.672C212.926 342.568 214.458 342.641 215.333 342.568C216.209 342.495 217.23 342.203 217.084 341.401C217.335 341.543 217.622 341.605 217.909 341.579C218.196 341.553 218.468 341.44 218.689 341.256C219.418 340.599 219.637 340.016 217.886 338.047C216.136 336.078 211.686 330.901 209.497 328.641C207.309 326.381 204.756 326.162 199.357 326.453C193.959 326.745 186.372 325.578 186.154 325.797C185.935 326.016 162.737 301.443 155.734 294.443C155.734 294.443 150.117 276.141 148.439 268.266C145.01 252.443 136.694 247.12 128.67 250.912Z" fill="#FFE7CA"/>
<path d="M602.297 234.901L535.038 227.026C534.585 226.983 534.147 226.84 533.755 226.609C533.363 226.377 533.026 226.063 532.769 225.687C532.512 225.312 532.34 224.885 532.265 224.436C532.191 223.987 532.216 223.527 532.339 223.089L547.877 152.068C548.102 151.214 548.576 150.446 549.238 149.862C549.901 149.278 550.722 148.904 551.597 148.787L621.774 141.422C622.177 141.352 622.59 141.383 622.978 141.511C623.366 141.638 623.716 141.86 623.997 142.156C624.279 142.452 624.483 142.812 624.592 143.206C624.7 143.6 624.71 144.014 624.619 144.412L606.017 232.204C605.82 233.022 605.337 233.744 604.655 234.239C603.973 234.733 603.137 234.968 602.297 234.901Z" fill="#63737A"/>
<path d="M599.598 234.901L531.755 226.954C531.299 226.912 530.857 226.772 530.46 226.543C530.063 226.314 529.721 226.001 529.457 225.626C529.194 225.252 529.015 224.824 528.933 224.373C528.851 223.923 528.868 223.459 528.983 223.016L544.667 151.485C544.873 150.608 545.351 149.819 546.032 149.23C546.713 148.64 547.563 148.281 548.461 148.204L619.148 140.766C619.551 140.696 619.964 140.726 620.352 140.854C620.74 140.982 621.09 141.204 621.371 141.5C621.653 141.796 621.857 142.156 621.965 142.55C622.074 142.943 622.084 143.358 621.993 143.756L603.172 232.276C603.001 233.075 602.543 233.784 601.884 234.267C601.225 234.751 600.412 234.977 599.598 234.901Z" fill="#22272E"/>
<path d="M574.576 166.287L549.044 167.526C548.894 167.538 548.744 167.514 548.605 167.457C548.465 167.4 548.341 167.311 548.242 167.198C548.143 167.085 548.072 166.95 548.034 166.805C547.996 166.659 547.992 166.507 548.023 166.36L550.066 156.881C550.14 156.615 550.289 156.377 550.497 156.196C550.704 156.015 550.96 155.898 551.233 155.86L576.984 153.672C577.137 153.649 577.293 153.664 577.438 153.717C577.583 153.77 577.713 153.859 577.815 153.975C577.917 154.092 577.987 154.232 578.021 154.383C578.054 154.534 578.049 154.691 578.005 154.839L575.744 165.339C575.665 165.595 575.512 165.822 575.304 165.99C575.097 166.159 574.843 166.262 574.576 166.287Z" fill="#FFDC60"/>
<path d="M540.801 219.443C540.672 219.435 540.546 219.399 540.432 219.337C540.318 219.275 540.22 219.189 540.143 219.084C540.067 218.98 540.014 218.86 539.989 218.733C539.964 218.606 539.967 218.475 539.999 218.349L543.792 200.558C543.848 200.276 544.005 200.024 544.233 199.85C544.461 199.675 544.745 199.59 545.032 199.61C545.163 199.612 545.292 199.645 545.409 199.705C545.525 199.766 545.626 199.852 545.704 199.958C545.782 200.064 545.834 200.186 545.856 200.316C545.879 200.445 545.872 200.578 545.834 200.703L542.041 218.568C541.978 218.841 541.817 219.081 541.588 219.242C541.36 219.404 541.079 219.475 540.801 219.443Z" fill="#F4595F"/>
<path d="M549.847 219.224L554.369 198.224C554.425 197.943 554.582 197.691 554.811 197.517C555.039 197.342 555.323 197.257 555.61 197.276H555.755C555.889 197.279 556.021 197.311 556.141 197.37C556.26 197.429 556.366 197.514 556.449 197.618C556.533 197.723 556.593 197.844 556.624 197.974C556.655 198.104 556.658 198.239 556.631 198.37L552.108 219.37C552.036 219.658 551.865 219.911 551.625 220.084C551.385 220.258 551.091 220.341 550.795 220.318H550.649C550.516 220.32 550.385 220.291 550.266 220.231C550.147 220.172 550.044 220.086 549.965 219.979C549.886 219.871 549.835 219.747 549.814 219.616C549.793 219.485 549.805 219.35 549.847 219.224Z" fill="#FFDC60"/>
<path d="M559.695 220.027L564.801 196.037C564.873 195.724 565.049 195.445 565.301 195.246C565.553 195.047 565.866 194.94 566.187 194.943C566.339 194.942 566.488 194.976 566.624 195.043C566.76 195.109 566.879 195.207 566.971 195.327C567.062 195.447 567.125 195.587 567.154 195.735C567.183 195.884 567.176 196.037 567.136 196.183L562.029 220.172C561.946 220.493 561.757 220.776 561.492 220.975C561.226 221.174 560.901 221.277 560.57 221.266C560.424 221.258 560.283 221.217 560.155 221.146C560.028 221.075 559.918 220.976 559.834 220.857C559.749 220.738 559.693 220.602 559.669 220.458C559.645 220.314 559.654 220.166 559.695 220.027Z" fill="#6DAFA7"/>
<path d="M596.169 174.745L597.847 178.318C595.805 180.651 593.324 182.11 590.99 182.11C586.467 182.11 584.06 176.641 585.519 169.86C586.978 163.079 591.792 157.318 596.388 156.954C598.796 156.735 600.619 157.974 601.714 160.162L598.504 163.954C598.26 163.334 597.823 162.808 597.259 162.454C596.695 162.1 596.032 161.935 595.367 161.985C592.595 162.204 589.677 165.631 588.729 169.787C587.78 173.943 589.312 177.224 592.084 177.151C593.705 176.905 595.168 176.043 596.169 174.745Z" fill="#6DAFA7"/>
<path d="M602.443 169.058C601.704 172.442 600.151 175.595 597.92 178.245L596.242 174.672C597.595 173.11 598.525 171.227 598.941 169.203C599.401 167.437 599.273 165.568 598.577 163.881L601.786 160.089C602.881 162.349 603.172 165.485 602.443 169.058Z" fill="#FFDC60"/>
<path d="M576.692 210.11C575.233 216.891 577.64 222.36 582.163 222.36C584.497 222.36 586.978 220.901 589.02 218.568L587.342 214.995C586.335 216.273 584.87 217.11 583.257 217.329C580.485 217.401 579.026 214.047 579.902 209.964C580.278 208.186 581.051 206.516 582.163 205.079L580.631 201.724C578.702 204.187 577.355 207.053 576.692 210.11Z" fill="#01A9DC"/>
<path d="M586.54 202.235C587.204 202.191 587.864 202.358 588.427 202.711C588.991 203.065 589.428 203.587 589.677 204.204L592.887 200.412C591.792 198.224 589.896 196.985 587.561 197.204C585.081 197.422 582.601 199.172 580.558 201.724L582.09 205.079C583.403 203.474 584.935 202.308 586.54 202.235Z" fill="#FFDC60"/>
<path d="M593.543 209.454C592.804 212.838 591.252 215.991 589.021 218.641L587.343 215.068C588.696 213.506 589.625 211.623 590.042 209.599C590.501 207.833 590.373 205.964 589.677 204.277L592.887 200.485C593.981 202.672 594.346 205.881 593.543 209.454Z" fill="#F4595F"/>
<path d="M547.147 173.87L565.093 173.214" stroke="#63737A" stroke-width="1.8" stroke-linecap="round" stroke-linejoin="round"/>
<path d="M546.126 177.954L571.804 177.662" stroke="#63737A" stroke-width="1.8" stroke-linecap="round" stroke-linejoin="round"/>
<path d="M545.324 182.183H571.294" stroke="#63737A" stroke-width="1.8" stroke-linecap="round" stroke-linejoin="round"/>
<path d="M612.437 147.839C612.583 147.256 612.364 146.818 611.926 146.818C611.67 146.897 611.444 147.049 611.275 147.257C611.106 147.465 611.003 147.718 610.978 147.985C610.832 148.568 611.051 149.006 611.489 149.006C611.745 148.927 611.972 148.774 612.141 148.567C612.309 148.359 612.413 148.106 612.437 147.839Z" fill="#63737A"/>
<path d="M616.668 147.474C616.814 146.891 616.522 146.454 616.157 146.454C615.899 146.54 615.668 146.694 615.489 146.899C615.309 147.104 615.188 147.353 615.136 147.62C614.99 148.204 615.282 148.641 615.647 148.641C615.918 148.578 616.162 148.432 616.345 148.222C616.529 148.013 616.642 147.751 616.668 147.474Z" fill="#63737A"/>
<path d="M635.552 339.646H620.744C619.972 339.648 619.227 339.367 618.648 338.856C618.07 338.346 617.7 337.641 617.607 336.875L616.44 326.375C616.391 325.934 616.437 325.489 616.572 325.067C616.708 324.644 616.931 324.256 617.227 323.926C617.523 323.595 617.885 323.331 618.29 323.15C618.695 322.969 619.133 322.875 619.576 322.875H636.719C637.163 322.877 637.6 322.971 638.005 323.153C638.409 323.334 638.771 323.598 639.066 323.928C639.362 324.258 639.585 324.646 639.721 325.068C639.857 325.489 639.903 325.935 639.856 326.375L638.689 336.875C638.596 337.641 638.226 338.346 637.647 338.856C637.069 339.367 636.324 339.648 635.552 339.646Z" fill="#E86484"/>
<path d="M626.361 322.948C626.361 322.948 620.525 322.365 619.357 314.49C619.357 314.49 624.61 316.021 626.288 319.74C626.288 319.74 627.017 311.427 630.956 310.625C630.956 310.625 632.707 316.823 629.935 319.885C629.935 319.885 632.051 316.385 637.449 316.458C636.939 317.994 636.061 319.382 634.891 320.5C633.721 321.619 632.295 322.434 630.738 322.875" fill="#38FF95"/>
<path d="M575.306 399.892C575.306 399.892 569.689 387.861 583.768 380.277C597.848 372.694 617.398 380.204 615.647 382.829C612.918 387.104 609.818 391.13 606.383 394.861C601.933 399.746 589.167 407.329 575.306 399.892Z" fill="#60FFA9"/>
<path d="M613.167 382.319C613.167 382.319 582.237 375.392 575.234 399.892C568.23 424.392 570.419 447.871 570.419 447.871" stroke="#2AD578" stroke-width="1.8" stroke-linecap="round" stroke-linejoin="round"/>
<path d="M547.44 427.454L552.473 486.736C552.473 488.996 561.665 490.746 573.045 490.746C584.425 490.746 593.617 488.923 593.617 486.736L598.65 427.454H547.44Z" fill="#22272E"/>
<path d="M573.045 431.319C587.146 431.319 598.577 429.589 598.577 427.454C598.577 425.32 587.146 423.59 573.045 423.59C558.944 423.59 547.513 425.32 547.513 427.454C547.513 429.589 558.944 431.319 573.045 431.319Z" fill="#60FFA9"/>
<path d="M566.553 415.131C566.553 415.131 558.309 411.048 552.984 420.235C547.659 429.423 551.598 443.277 555.245 445.319C558.893 447.361 574.066 440.433 574.066 426.506C574.066 414.111 566.553 415.131 566.553 415.131Z" fill="#60FFA9"/>
<path d="M566.552 415.131C566.552 415.131 558.309 414.548 555.829 443.423" stroke="#2AD578" stroke-width="1.8" stroke-linecap="round" stroke-linejoin="round"/>
<path d="M560.279 398.288C560.279 398.288 551.598 384.798 534.236 393.475C516.874 402.152 517.385 426.069 520.084 427.454C522.783 428.84 563.416 414.694 560.279 398.288Z" fill="#60FFA9"/>
<path d="M574.066 426.506C574.066 426.506 568.668 407.548 560.279 398.215C551.89 388.881 525.847 399.6 521.251 422.131" stroke="#2AD578" stroke-width="1.8" stroke-linecap="round" stroke-linejoin="round"/>
<path d="M583.768 405.871C583.768 405.871 576.401 403.319 573.045 412.433C569.762 421.329 573.629 441.6 592.595 447.725C593.085 447.877 593.609 447.881 594.101 447.739C594.594 447.596 595.034 447.313 595.367 446.923C600.113 441.185 602.672 433.951 602.589 426.506C602.516 411.704 594.346 400.986 583.768 405.871Z" fill="#60FFA9"/>
<path d="M583.769 405.871C583.769 405.871 599.088 413.381 593.471 444.954" stroke="#2AD578" stroke-width="1.8" stroke-linecap="round" stroke-linejoin="round"/>
<path d="M477.302 67H375V169.302H477.302V67Z" fill="#24285B"/>
<path d="M437.757 111.883H404.892V115.558H437.757V111.883Z" fill="#68E1FD"/>
<path d="M443.695 101.642H414.321V105.316H443.695V101.642Z" fill="#FFD200"/>
<path d="M442.162 130.123H426.836V133.797H442.162V130.123Z" fill="#FFD200"/>
<path d="M453.48 120.775H414.321V124.449H453.48V120.775Z" fill="#68E1FD"/>
<path d="M407.429 120.775H392.702V124.449H407.429V120.775Z" fill="white"/>
<path d="M422.096 130.438H407.368V134.112H422.096V130.438Z" fill="white"/>
<path d="M408.15 150.149H393.422V153.823H408.15V150.149Z" fill="white"/>
<path d="M398.01 111.883H383.282V115.558H398.01V111.883Z" fill="white"/>
<path d="M381.699 74.9374C382.658 74.9374 383.435 74.1603 383.435 73.2017C383.435 72.2431 382.658 71.4661 381.699 71.4661C380.74 71.4661 379.963 72.2431 379.963 73.2017C379.963 74.1603 380.74 74.9374 381.699 74.9374Z" fill="white"/>
<path d="M386.855 74.9374C387.814 74.9374 388.591 74.1603 388.591 73.2017C388.591 72.2431 387.814 71.4661 386.855 71.4661C385.897 71.4661 385.12 72.2431 385.12 73.2017C385.12 74.1603 385.897 74.9374 386.855 74.9374Z" fill="#68E1FD"/>
<path d="M391.707 74.9374C392.665 74.9374 393.442 74.1603 393.442 73.2017C393.442 72.2431 392.665 71.4661 391.707 71.4661C390.748 71.4661 389.971 72.2431 389.971 73.2017C389.971 74.1603 390.748 74.9374 391.707 74.9374Z" fill="#FFD200"/>
<path d="M398.01 83.9199H383.282V87.5942H398.01V83.9199Z" fill="white"/>
<path d="M407.429 93.116H392.702V96.7903H407.429V93.116Z" fill="white"/>
<path d="M443.695 93.116H414.321V96.7903H443.695V93.116Z" fill="#FFD200"/>
<path d="M407.429 101.642H392.702V105.316H407.429V101.642Z" fill="white"/>
<path d="M434.235 83.9199H403.897V87.5942H434.235V83.9199Z" fill="#68E1FD"/>
<path d="M398.426 140.466H383.698V144.14H398.426V140.466Z" fill="white"/>
<path d="M434.641 140.466H404.303V144.14H434.641V140.466Z" fill="#68E1FD"/>
<path d="M444.314 150.128H413.976V153.803H444.314V150.128Z" fill="#68E1FD"/>
<path d="M462.117 83.9199H440.579V87.5942H462.117V83.9199Z" fill="#68E1FD"/>
<path d="M334 83.4883V36.8984C334.014 33.4716 335.141 30.191 337.135 27.7739C339.129 25.3568 341.828 24 344.641 24H510.359C513.172 24 515.871 25.3568 517.865 27.7739C519.859 30.191 520.986 33.4716 521 36.8984V109" stroke="#E6E6E6" stroke-width="1.015" stroke-linecap="round" stroke-linejoin="round" stroke-dasharray="3.05 10.15"/>
<path d="M351.773 90H314V118.858H351.773V90Z" fill="#E6E6E6"/>
<path d="M323.739 104.155C324.877 104.155 325.033 103.47 325.033 102.853C325.022 102.359 324.98 101.866 324.908 101.379C324.829 100.898 324.785 100.411 324.776 99.9223C324.776 98.3029 325.734 97.6174 327.113 97.6174H327.456V98.5857H327.168C326.225 98.5857 325.905 99.1512 325.905 100.094C325.911 100.513 325.948 100.932 326.014 101.345C326.083 101.786 326.12 102.233 326.123 102.681C326.176 103.096 326.089 103.518 325.878 103.867C325.667 104.216 325.347 104.468 324.978 104.575C325.351 104.688 325.673 104.95 325.881 105.309C326.088 105.669 326.166 106.1 326.1 106.52C326.097 106.965 326.06 107.409 325.991 107.848C325.926 108.259 325.89 108.674 325.882 109.091C325.882 110.076 326.248 110.616 327.144 110.616H327.432V111.661H327.09C325.765 111.661 324.752 111.027 324.752 109.253C324.762 108.77 324.806 108.289 324.885 107.814C324.964 107.33 325.011 106.84 325.025 106.349C325.025 105.809 324.869 105.046 323.731 105.046L323.739 104.155Z" fill="#9E9E9E"/>
<path d="M342.462 105.089C341.325 105.089 341.169 105.775 341.169 106.383C341.179 106.877 341.221 107.369 341.294 107.857C341.369 108.341 341.413 108.831 341.426 109.322C341.426 110.933 340.468 111.618 339.089 111.618H338.754V110.65H339.05C339.993 110.65 340.312 110.093 340.312 109.142C340.306 108.725 340.269 108.31 340.203 107.9C340.132 107.458 340.093 107.011 340.086 106.563C340.032 106.145 340.119 105.72 340.332 105.369C340.545 105.018 340.868 104.766 341.239 104.661C340.866 104.555 340.542 104.302 340.329 103.949C340.116 103.596 340.03 103.169 340.086 102.75C340.091 102.302 340.13 101.854 340.203 101.413C340.27 100.994 340.306 100.57 340.312 100.145C340.312 99.1683 339.946 98.6199 339.05 98.6199H338.761V97.6174H339.096C340.421 97.6174 341.434 98.2515 341.434 100.025C341.421 100.508 341.377 100.989 341.301 101.465C341.229 101.935 341.188 102.41 341.177 102.887C341.177 103.435 341.333 104.189 342.47 104.189L342.462 105.089Z" fill="#9E9E9E"/>
<path d="M539 92.2395H502.36V118H539V92.2395Z" fill="#FFD200"/>
<path d="M515.926 111.037C515.734 111.038 515.548 110.969 515.396 110.84L509.837 106.009C509.736 105.92 509.655 105.807 509.598 105.679C509.541 105.552 509.51 105.412 509.508 105.269C509.508 105.128 509.538 104.988 509.593 104.86C509.649 104.732 509.73 104.619 509.83 104.53L515.389 99.6122C515.476 99.5276 515.578 99.4633 515.688 99.4232C515.799 99.3831 515.915 99.368 516.031 99.3789C516.147 99.3898 516.259 99.4265 516.362 99.4866C516.464 99.5468 516.555 99.6292 516.627 99.7289C516.7 99.8286 516.754 99.9434 516.785 100.067C516.816 100.19 516.824 100.318 516.809 100.445C516.793 100.572 516.755 100.694 516.695 100.803C516.635 100.913 516.556 101.008 516.462 101.084L511.747 105.262L516.462 109.353C516.639 109.51 516.753 109.738 516.779 109.987C516.804 110.236 516.739 110.486 516.598 110.683C516.519 110.795 516.416 110.885 516.3 110.947C516.183 111.008 516.055 111.039 515.926 111.037Z" fill="white"/>
<path d="M525.942 111.037C525.764 111.037 525.59 110.977 525.444 110.864C525.298 110.75 525.188 110.59 525.129 110.405C525.07 110.22 525.065 110.019 525.115 109.83C525.164 109.642 525.266 109.475 525.406 109.353L530.121 105.261L525.399 101.083C525.222 100.925 525.11 100.696 525.086 100.448C525.062 100.199 525.128 99.9495 525.27 99.7537C525.341 99.6569 525.428 99.5765 525.527 99.517C525.626 99.4575 525.735 99.4201 525.848 99.4069C525.96 99.3938 526.074 99.4051 526.182 99.4403C526.29 99.4755 526.391 99.5339 526.479 99.6121L532.038 104.53C532.138 104.618 532.219 104.731 532.274 104.859C532.328 104.988 532.355 105.128 532.353 105.269C532.352 105.411 532.322 105.551 532.267 105.679C532.211 105.806 532.131 105.919 532.031 106.009L526.472 110.84C526.32 110.969 526.134 111.038 525.942 111.037Z" fill="white"/>
<path d="M518.595 111.037C518.474 111.037 518.355 111.01 518.244 110.958C518.141 110.907 518.048 110.834 517.971 110.744C517.894 110.653 517.833 110.547 517.793 110.431C517.753 110.314 517.735 110.191 517.738 110.066C517.742 109.942 517.768 109.82 517.815 109.707L521.864 99.9505C521.959 99.722 522.133 99.5443 522.347 99.4565C522.561 99.3687 522.798 99.378 523.006 99.4823C523.213 99.5866 523.375 99.7775 523.455 100.013C523.535 100.248 523.526 100.509 523.431 100.737L519.382 110.486C519.311 110.65 519.2 110.789 519.061 110.887C518.921 110.984 518.76 111.036 518.595 111.037Z" fill="white"/>
</g>
<defs>
<clipPath id="clip0_211_736">
<rect width="747" height="560" fill="white"/>
</clipPath>
</defs>
</svg>
