<svg width="197" height="449" viewBox="0 0 197 449" fill="none" xmlns="http://www.w3.org/2000/svg">
<path d="M106.342 399.409L108.058 416.267C108.42 419.365 109.052 423.192 109.504 425.653C109.652 426.466 109.606 427.303 109.371 428.095C109.135 428.888 108.716 429.612 108.149 430.209C107.836 433.33 107.836 436.474 108.149 439.595V439.777C108.322 441.224 107.927 442.682 107.05 443.839C106.172 444.997 104.88 445.763 103.45 445.973C96.8429 447.068 90.1733 447.738 83.4817 447.978C78.9868 448.164 74.4843 447.981 70.0188 447.431C69.2156 447.338 68.4508 447.034 67.8016 446.548C67.1525 446.062 66.6418 445.412 66.3211 444.663C66.0004 443.915 65.8811 443.094 65.975 442.284C66.069 441.474 66.373 440.704 66.8563 440.05C70.6513 435.038 75.8015 427.931 78.6929 423.648C83.4817 416.358 82.8492 406.517 81.7649 399.318C80.6807 392.119 102.366 393.941 106.342 399.409Z" fill="#F4C2C9"/>
<path d="M106.974 405.696C106.612 402.234 106.341 399.409 106.341 399.409C102.456 393.941 80.6805 392.21 81.7647 399.409C82.4443 403.624 82.6565 407.903 82.3972 412.166C91.5231 413.715 101.914 412.44 106.974 405.696Z" fill="#E26E85"/>
<path d="M108.148 439.777C107.834 436.656 107.834 433.512 108.148 430.391C108.71 429.791 109.126 429.066 109.361 428.275C109.596 427.484 109.645 426.648 109.504 425.835C109.052 423.375 108.419 419.547 108.058 416.449C108.072 416.292 108.041 416.133 107.968 415.993C105.167 418.636 102.185 421.096 101.01 424.832C100.708 425.818 100.044 426.65 99.1539 427.158C98.2638 427.666 97.2148 427.812 96.2215 427.566C89.5352 425.835 82.8489 425.47 76.1626 427.657C73.3616 431.667 69.6571 436.588 66.8561 440.415C66.3669 441.067 66.0581 441.838 65.9611 442.65C65.8641 443.461 65.9824 444.284 66.304 445.035C66.6255 445.785 67.1388 446.436 67.7914 446.921C68.444 447.407 69.2125 447.708 70.0185 447.796C74.4908 448.255 78.9869 448.438 83.4814 448.343C90.173 448.102 96.8427 447.433 103.45 446.338C104.88 446.127 106.171 445.361 107.049 444.204C107.927 443.046 108.321 441.588 108.148 440.141V439.777Z" fill="#22272E"/>
<path d="M155.856 401.231C155.856 401.231 158.657 411.984 158.657 415.72C158.657 418.363 158.025 424.833 157.573 428.66C157.385 430.168 157.669 431.697 158.386 433.034C158.569 433.301 158.664 433.62 158.657 433.945C158.747 434.583 158.747 437.317 158.747 439.868C158.741 441.276 159.256 442.636 160.192 443.681C161.128 444.727 162.417 445.381 163.807 445.518C169.19 445.894 174.591 445.955 179.981 445.7C186.215 445.518 190.462 445.153 193.263 444.88C193.937 444.809 194.583 444.572 195.146 444.191C195.708 443.811 196.17 443.297 196.491 442.695C196.812 442.093 196.981 441.421 196.986 440.738C196.99 440.055 196.829 439.381 196.516 438.775C192.721 431.667 186.125 418.909 184.77 415.811C182.872 411.346 180.884 398.407 180.884 398.407C180.884 398.407 156.398 388.292 155.856 401.231Z" fill="#F4C2C9"/>
<path d="M183.053 409.797C181.878 404.512 180.884 398.407 180.884 398.407C180.884 398.407 156.398 388.292 155.946 401.231C155.946 401.231 156.579 403.601 157.211 406.517C165.795 409.888 174.379 410.526 183.053 409.797Z" fill="#E26E85"/>
<path d="M196.516 438.774C194.889 435.767 192.811 431.667 190.733 427.748C190.377 427.673 190.013 427.642 189.649 427.657C182.511 425.653 174.469 428.66 167.331 428.66C164.53 427.748 163.446 419.912 158.567 417.087C158.386 420.185 157.934 425.47 157.573 428.751C157.385 430.259 157.67 431.788 158.386 433.125C158.569 433.392 158.664 433.711 158.657 434.036C158.747 434.674 158.747 437.408 158.747 439.959C158.741 441.367 159.256 442.727 160.192 443.773C161.128 444.818 162.417 445.473 163.807 445.609C169.19 445.985 174.591 446.046 179.981 445.791C186.215 445.609 190.462 445.244 193.263 444.971C193.944 444.893 194.595 444.649 195.161 444.26C195.727 443.871 196.19 443.349 196.511 442.738C196.831 442.128 196.999 441.448 197 440.757C197.001 440.066 196.835 439.386 196.516 438.774Z" fill="#22272E"/>
<path d="M152.694 162.395C152.694 162.395 160.012 173.785 162 196.202C163.175 209.141 161.548 254.248 162 258.531C162.362 261.811 168.325 302.544 173.837 339.905C176.547 357.765 181.427 375.625 184.228 387.198C185.393 391.513 184.976 396.108 183.053 400.138C183.053 400.138 181.246 406.061 172.662 406.516C162.633 406.972 159.199 405.696 154.501 403.692C152.681 402.875 151.083 401.629 149.84 400.059C148.598 398.489 147.748 396.641 147.363 394.67C145.556 384.647 143.206 366.148 137.604 346.466C130.557 321.862 121.611 293.249 118.088 271.015C117.636 268.372 115.738 259.624 113.751 251.332C112.034 244.315 110.317 237.663 109.414 235.112C106.161 225.999 106.522 225.635 105.438 223.448C103.721 219.985 99.7455 224.268 95.7699 207.683C95.0406 204.26 94.5575 200.788 94.3243 197.295C93.4207 186.816 93.1497 173.967 93.1497 173.967C93.1497 173.967 138.779 151.186 152.694 162.395Z" fill="#0014CA"/>
<path d="M70.4704 173.147C66.2639 203.183 64.1805 233.482 64.2359 263.816C64.2359 274.113 66.8562 298.17 69.9283 323.32C73.1811 350.202 73.7232 372.072 75.5303 393.577C75.741 396.44 76.9213 399.142 78.8734 401.231C79.777 402.143 80.5902 403.145 81.4937 404.056C82.9394 405.697 86.2826 408.157 93.1496 407.975C103.36 407.701 108.148 402.689 110.046 400.229C111.582 398.224 113.479 395.855 113.57 389.568C113.841 374.259 110.136 369.156 111.311 319.493C111.718 303.287 111.205 287.071 109.775 270.924C109.233 265.274 128.659 201.123 130.376 192.83C132.093 184.538 84.7465 164.855 70.4704 173.147Z" fill="#0014CA"/>
<path d="M142.845 184.902C142.845 184.902 144.561 198.48 156.579 205.314" stroke="#0A05FF" stroke-width="1.8" stroke-linecap="round" stroke-linejoin="round"/>
<path d="M78.241 288.602C84.6285 288.602 89.8065 282.89 89.8065 275.844C89.8065 268.799 84.6285 263.087 78.241 263.087C71.8536 263.087 66.6755 268.799 66.6755 275.844C66.6755 282.89 71.8536 288.602 78.241 288.602Z" stroke="#0A05FF" stroke-width="1.8" stroke-linecap="round" stroke-linejoin="round"/>
<path d="M141.399 288.602C148.336 288.602 153.959 282.89 153.959 275.844C153.959 268.799 148.336 263.087 141.399 263.087C134.463 263.087 128.84 268.799 128.84 275.844C128.84 282.89 134.463 288.602 141.399 288.602Z" stroke="#0A05FF" stroke-width="1.8" stroke-linecap="round" stroke-linejoin="round"/>
<path d="M84.2947 124.214C72.7293 139.978 60.5313 147.086 50.1405 140.343C41.1954 134.511 32.0695 91.5 29.0878 76.4645C28.4553 73.184 28.0939 71.2704 28.0939 71.2704L27.1 66.8053C27.1 66.8053 17.5223 65.2562 15.1731 64.5272C13.7066 64.1366 12.3378 63.44 11.1549 62.4826C9.97206 61.5251 9.00156 60.328 8.30611 58.9686C6.40866 55.5059 1.25844 49.6739 3.69803 48.8538C6.13761 48.0337 12.6431 56.0526 12.6431 56.0526C17.4473 56.0901 22.248 55.7856 27.0096 55.1414C35.6837 54.0479 40.1111 54.0479 42.8218 57.6928C43.9314 59.3984 44.7556 61.2763 45.2614 63.2514L47.2491 68.6278L60.8024 104.986C60.8024 104.986 61.4349 103.802 62.4288 101.888C72.0968 107.447 78.4216 115.648 84.2947 124.214Z" fill="#F4C2C9"/>
<path d="M79.5058 130.228C81.2165 128.319 82.8155 126.31 84.2946 124.214C78.4216 115.739 72.0064 107.447 62.3384 101.888C61.9769 102.617 61.7059 103.164 61.4348 103.62C69.3861 111.183 75.1688 120.295 79.5058 130.228Z" fill="#E26E85"/>
<path d="M60.8025 101.432C70.4705 107.082 78.5121 115.739 84.3852 124.213C85.7405 122.3 87.1862 120.295 88.5415 118.199C80.812 110.491 72.4046 103.507 63.4228 97.3318C62.4207 98.6106 61.5432 99.9838 60.8025 101.432Z" fill="white"/>
<path d="M82.849 68.9922C82.849 68.9922 77.4277 73.1839 71.4642 84.4833C68.9896 88.8842 66.2748 93.1432 63.3323 97.2407C72.2931 103.444 80.6981 110.426 88.451 118.108C90.0774 115.557 91.7037 112.823 93.3301 109.998C107.426 84.6656 91.4327 64.3449 82.849 68.9922Z" fill="#F4595F"/>
<path d="M60.8025 104.986C60.8025 104.986 62.7 110.272 64.3264 115.01" stroke="#E26E85" stroke-width="1.8" stroke-linecap="round" stroke-linejoin="round"/>
<path d="M7.49298 57.6017C7.49298 57.6017 3.06558 54.2301 0.716345 52.681C-1.63289 51.1319 2.25241 49.4005 5.77626 50.8585C9.30011 52.3165 15.4443 54.4124 15.4443 54.4124C15.4443 54.4124 11.6493 50.7674 10.6554 49.4917C9.6615 48.2159 12.1915 47.1224 14.6311 48.6715C17.0706 50.2207 21.227 54.0479 24.1183 55.3236C27.0097 56.5994 26.9193 59.8798 25.4737 60.4266C24.028 60.9733 13.0046 59.7887 7.49298 57.6017Z" fill="#F4C2C9"/>
<path d="M40.0207 55.4147C40.0207 55.4147 35.1415 52.9543 33.1537 52.1342C31.1956 51.3178 29.1698 50.6775 27.0999 50.2206C26.2867 50.1295 24.7507 51.6786 27.7324 54.139C30.7141 56.5993 32.4309 58.0573 32.4309 58.0573C32.4309 58.0573 41.4663 58.4218 40.0207 55.4147Z" fill="#F4C2C9"/>
<path d="M82.8491 68.6278C82.8491 68.6278 88.0897 61.429 113.931 59.6066C139.773 57.7841 155.043 63.5249 160.464 72.5462C165.885 81.5675 151.158 132.141 149.802 139.158C148.447 146.175 155.314 163.762 155.314 167.498C155.314 171.234 125.677 182.26 106.974 181.895C94.6639 181.587 82.5352 178.831 71.2837 173.785C70.4955 173.424 69.852 172.803 69.4582 172.026C69.0644 171.248 68.9434 170.358 69.1151 169.502C70.1994 164.035 72.5486 151.551 74.8075 140.707C77.7892 126.218 69.5669 90.2243 82.8491 68.6278Z" fill="#FFE779"/>
<path d="M131.822 65.3472C131.731 71.7259 120.889 82.9342 111.672 83.8455C102.456 85.5768 97.5769 76.92 97.5769 69.7212C97.5769 62.5224 105.618 55.6881 115.015 54.7768C123.87 53.7744 131.912 58.8774 131.822 65.3472Z" fill="white"/>
<path d="M103.36 51.4964L102.004 63.1603C102.004 63.1603 98.7516 73.5485 108.962 74.8242C119.172 76.1 126.129 66.0763 126.491 62.6136L125.135 36.4609C125.226 36.5521 106.793 38.2834 103.36 51.4964Z" fill="#F4C2C9"/>
<path d="M115.919 57.4194C111.763 58.6952 107.064 58.5129 102.547 58.4218L102.095 62.5224C104.629 62.7423 107.18 62.3994 109.568 61.5177C111.957 60.6361 114.125 59.2372 115.919 57.4194Z" fill="#E26E85"/>
<path d="M102.366 158.568H54.7488C53.7022 158.571 52.689 158.196 51.8932 157.511C51.0974 156.825 50.5717 155.875 50.4117 154.831L45.2615 121.753C45.1808 121.255 45.2096 120.744 45.3457 120.258C45.4819 119.772 45.7221 119.322 46.0495 118.94C46.3769 118.557 46.7835 118.252 47.2406 118.046C47.6977 117.839 48.1942 117.736 48.695 117.744H96.3121C97.3587 117.74 98.3719 118.115 99.1677 118.801C99.9635 119.486 100.489 120.437 100.649 121.48L105.799 154.558C105.88 155.057 105.851 155.567 105.715 156.053C105.579 156.539 105.339 156.989 105.011 157.372C104.684 157.754 104.277 158.059 103.82 158.266C103.363 158.472 102.867 158.575 102.366 158.568Z" fill="#22272E"/>
<path d="M72.5487 125.216C73.3471 125.216 73.9944 124.563 73.9944 123.758C73.9944 122.953 73.3471 122.3 72.5487 122.3C71.7503 122.3 71.103 122.953 71.103 123.758C71.103 124.563 71.7503 125.216 72.5487 125.216Z" fill="#E3D7FF"/>
<path d="M112.937 138.247C112.937 138.247 109.323 134.146 107.155 132.779C105.52 131.819 103.795 131.026 102.004 130.41L101.914 138.156C101.914 138.156 110.679 139.614 112.937 138.247Z" fill="#F4C2C9"/>
<path d="M117.907 137.7C114.835 138.065 112.937 138.247 112.937 138.247C111.591 137.203 110.172 136.259 108.691 135.422C106.522 134.237 102.366 134.784 98.5708 134.602C94.7759 134.42 90.6196 134.237 86.3729 133.873C83.1201 133.599 80.1383 133.235 79.7769 134.602C79.2348 136.789 84.114 137.336 84.114 137.336C84.114 137.336 79.5058 137.336 78.4216 137.882C76.1627 138.976 78.2409 140.798 78.2409 140.798C74.9881 142.347 77.9698 144.717 77.9698 144.717C77.9698 144.717 76.2531 145.446 77.518 147.45C80.1383 151.733 93.4205 155.651 96.4023 155.651H109.775C109.775 155.651 113.208 155.925 118.991 156.472C120.759 150.272 120.377 143.65 117.907 137.7Z" fill="#F4C2C9"/>
<path d="M124.864 136.971C122.244 137.244 119.895 137.518 117.997 137.7C120.439 143.66 120.789 150.283 118.991 156.472C120.889 156.654 123.057 156.836 125.406 157.018C127.665 150.457 128.207 143.532 124.864 136.971Z" fill="#22272E"/>
<path d="M148.176 117.926C151.79 126.218 155.224 133.599 155.224 133.599C151.971 134.055 136.159 135.786 124.774 136.971C128.117 143.623 127.575 150.457 125.316 157.109C131.731 157.656 139.682 158.385 148.447 159.205C170.313 161.21 184.318 160.025 187.39 148.179C190.01 138.064 186.757 128.496 176.186 103.619C166.608 107.811 156.85 112.003 148.176 117.926Z" fill="#F4C2C9"/>
<path d="M176.276 103.619C166.608 107.811 156.85 112.003 148.176 117.926C148.447 118.473 148.718 119.111 148.989 119.657C157.392 112.367 168.054 110.636 178.806 109.542C177.993 107.629 177.18 105.715 176.276 103.619Z" fill="#E26E85"/>
<path d="M176.999 96.603C164.259 66.9876 155.856 67.4433 155.856 67.4433C140.857 61.8847 134.894 82.4788 140.405 99.3368C141.49 102.799 144.02 108.176 146.459 113.734C155.133 106.627 167.241 102.07 177.993 98.79C177.588 98.0975 177.255 97.3646 176.999 96.603Z" fill="#F4595F"/>
<path d="M146.369 113.734C147.001 115.101 147.634 116.559 148.176 117.926C156.759 112.003 169.951 107.082 179.619 102.89C179.077 101.524 178.445 100.157 177.812 98.6987C167.15 102.07 154.952 106.535 146.369 113.734Z" fill="white"/>
<path d="M84.2046 137.335C84.2046 137.335 90.168 138.156 91.9751 138.52C93.8618 138.803 95.7619 138.985 97.6675 139.067" stroke="#E26E85" stroke-width="1.8" stroke-linecap="round" stroke-linejoin="round"/>
<path d="M78.241 140.798C78.241 140.798 84.6562 142.347 87.0958 142.894C89.5353 143.441 96.9444 144.261 96.9444 144.261" stroke="#E26E85" stroke-width="1.8" stroke-linecap="round" stroke-linejoin="round"/>
<path d="M77.97 144.717C80.2897 145.976 82.7072 147.042 85.1984 147.906C88.5743 148.888 92.017 149.619 95.4989 150.093" stroke="#E26E85" stroke-width="1.8" stroke-linecap="round" stroke-linejoin="round"/>
<path d="M155.224 133.508C155.224 133.508 166.066 131.777 168.687 131.959" stroke="#E26E85" stroke-width="1.8" stroke-linecap="round" stroke-linejoin="round"/>
<path d="M123.238 149.09C125.833 149.09 127.937 146.969 127.937 144.352C127.937 141.735 125.833 139.614 123.238 139.614C120.643 139.614 118.54 141.735 118.54 144.352C118.54 146.969 120.643 149.09 123.238 149.09Z" fill="white"/>
<path d="M91.5232 14.0443C90.1665 15.437 89.1816 17.1535 88.6603 19.0337C88.1389 20.9139 88.098 22.8966 88.5415 24.797C89.8968 31.7224 99.5648 38.3745 99.5648 38.3745C99.5648 38.3745 103.811 7.75675 91.5232 14.0443Z" fill="#22272E"/>
<path d="M92.4269 16.8692C92.4269 16.8692 91.2523 34.3651 90.9812 41.2905C90.7102 48.216 93.4208 57.6018 103.45 59.242C113.48 60.8823 123.69 56.0527 127.033 42.9308C130.376 29.8089 130.015 14.7734 118.63 12.7686C107.245 10.7639 92.4269 16.8692 92.4269 16.8692Z" fill="#F4C2C9"/>
<path d="M123.69 37.6455C123.78 35.2656 123.009 32.9337 121.521 31.0846C120.007 29.0387 119.241 26.5275 119.353 23.9769C119.353 23.9769 117.455 14.1354 103.269 23.5212C97.306 27.4396 83.301 22.3366 85.831 11.2195C89.7162 -5.91189 111.04 1.37806 117.184 2.47155C123.328 3.56504 129.382 3.56504 130.466 9.94374C130.466 9.94374 140.044 14.0443 137.243 25.3437C133.538 40.1059 126.129 55.4147 126.129 55.4147C126.129 55.4147 125.316 47.0313 123.69 37.6455Z" fill="#22272E"/>
<path d="M122.244 37.5543C122.244 37.5543 124.322 30.5378 129.834 32.0869C135.345 33.636 132.635 44.4798 125.045 45.8466" fill="#F4C2C9"/>
<path d="M94.4146 35.4586C94.1045 35.4539 93.8085 35.3275 93.5892 35.1064C93.3699 34.8853 93.2447 34.5867 93.24 34.274V33.1805C93.2447 32.8678 93.3699 32.5692 93.5892 32.348C93.8085 32.1269 94.1045 32.0006 94.4146 31.9958C94.7247 32.0006 95.0207 32.1269 95.24 32.348C95.4593 32.5692 95.5845 32.8678 95.5892 33.1805V34.274C95.6014 34.4327 95.5794 34.5922 95.5247 34.7415C95.47 34.8908 95.3839 35.0264 95.2723 35.1389C95.1607 35.2515 95.0262 35.3384 94.8782 35.3935C94.7301 35.4487 94.572 35.4709 94.4146 35.4586Z" fill="#22272E"/>
<path d="M108.148 35.4586C107.838 35.4539 107.542 35.3275 107.323 35.1064C107.104 34.8853 106.979 34.5867 106.974 34.274V33.1805C106.979 32.8678 107.104 32.5692 107.323 32.348C107.542 32.1269 107.838 32.0006 108.148 31.9958C108.459 32.0006 108.755 32.1269 108.974 32.348C109.193 32.5692 109.318 32.8678 109.323 33.1805V34.274C109.318 34.5867 109.193 34.8853 108.974 35.1064C108.755 35.3275 108.459 35.4539 108.148 35.4586Z" fill="#22272E"/>
<path d="M92.1557 28.8064C92.246 27.804 93.2399 25.7081 95.1374 25.7993C97.7577 25.9815 98.7516 27.7129 98.4805 28.8064C98.2094 29.7176 96.4927 29.0797 95.1374 28.9886C93.6013 28.8064 92.0653 29.6265 92.1557 28.8064Z" fill="#22272E"/>
<path d="M99.9262 33.8184C100.317 34.8399 100.348 35.9654 100.017 37.0077C99.8763 37.5376 99.6951 38.0555 99.4744 38.5568C99.3841 38.8302 99.2034 39.0124 99.113 39.2858C98.9778 39.4896 98.8571 39.7028 98.7516 39.9237C98.5704 40.2301 98.4825 40.5834 98.4985 40.9397C98.5146 41.2961 98.634 41.6399 98.8419 41.9284C99.0944 42.3042 99.3986 42.6417 99.7455 42.9308C100.106 43.2494 100.541 43.469 101.01 43.5687C100.494 43.7825 99.9209 43.8146 99.3841 43.6598C98.8083 43.4817 98.2821 43.1696 97.848 42.7485C97.3785 42.315 97.0614 41.7394 96.9445 41.1083C96.8638 40.7671 96.8543 40.4128 96.9165 40.0677C96.9787 39.7226 97.1113 39.3943 97.3059 39.1036C97.4112 38.8618 97.565 38.6446 97.7577 38.4657C97.9298 38.2874 98.0542 38.0679 98.1191 37.8278C98.3902 37.3722 98.5709 37.0077 98.8419 36.5521C99.273 35.6705 99.6355 34.7565 99.9262 33.8184Z" fill="#22272E"/>
<path d="M113.57 28.6242C113.548 28.2287 113.448 27.8414 113.277 27.4848C113.106 27.1282 112.867 26.8094 112.573 26.5467C112.279 26.284 111.936 26.0827 111.564 25.9545C111.192 25.8262 110.799 25.7735 110.407 25.7994C107.606 25.9816 106.341 27.5308 106.703 28.8976C106.974 29.9911 108.962 29.0799 110.407 28.8976C112.034 28.6242 113.57 29.7177 113.57 28.6242Z" fill="#22272E"/>
<path d="M102.456 49.2183C102.301 48.6183 102.18 48.0098 102.095 47.3958C102.073 47.1904 102.095 46.9828 102.157 46.7862C102.22 46.5896 102.323 46.4083 102.459 46.254C102.595 46.0996 102.761 45.9756 102.947 45.8897C103.134 45.8039 103.336 45.7582 103.54 45.7556C104.87 45.6856 106.18 45.409 107.426 44.9354C110.859 43.6597 111.311 46.0289 110.317 48.3982C107.787 47.8514 104.986 48.6715 102.456 49.2183Z" fill="#22272E"/>
<path d="M110.407 48.4893C109.504 50.494 107.516 52.5899 105.167 52.1343C104.494 51.9739 103.882 51.6226 103.401 51.122C102.921 50.6213 102.593 49.9923 102.456 49.3094C104.986 48.6715 107.787 47.8514 110.407 48.4893Z" fill="#E86484"/>
<path d="M130.014 36.2787C129.399 36.1396 128.755 36.2371 128.207 36.5521L127.936 37.0989C127.846 37.2811 127.846 37.7367 127.756 38.0101C127.667 38.7806 127.516 39.5425 127.304 40.2882C127.127 40.7695 126.77 41.1619 126.31 41.3817C126.111 41.4723 125.896 41.5191 125.677 41.5191C125.459 41.5191 125.244 41.4723 125.045 41.3817C125.354 41.1861 125.629 40.9397 125.858 40.6527C126.013 40.4095 126.077 40.1189 126.039 39.8326C126.027 39.1025 126.058 38.3722 126.129 37.6456C126.208 37.2094 126.329 36.782 126.491 36.3699C126.581 36.1186 126.725 35.8904 126.912 35.7014C127.099 35.5124 127.326 35.3673 127.575 35.2764C128.047 35.1387 128.548 35.1387 129.021 35.2764C129.375 35.5866 129.707 35.9216 130.014 36.2787Z" fill="#22272E"/>
</svg>
