<svg width="130" height="75" viewBox="0 0 130 75" fill="none" xmlns="http://www.w3.org/2000/svg">
<circle cx="67.2211" cy="38" r="37" fill="#01A9DC"/>
<circle cx="67.4143" cy="53.2842" r="11.7727" fill="#038FB5"/>
<circle cx="44.6416" cy="31.5115" r="5" fill="#038FB5"/>
<circle cx="5.6416" cy="41.5115" r="4" fill="#01A9DC"/>
<circle cx="5.6416" cy="41.5115" r="4" fill="#01A9DC"/>
<circle cx="123.642" cy="21.5115" r="4" fill="#01A9DC"/>
<circle cx="123.642" cy="21.5115" r="4" fill="#01A9DC"/>
<circle cx="82.1869" cy="18.7387" r="6.30682" fill="#5CBFE9"/>
<path d="M125.156 23.7085C125.531 26.5629 124.387 29.5953 121.748 32.6797C119.11 35.7639 115.05 38.8086 109.823 41.6246C99.3748 47.2532 84.4578 51.865 67.5536 54.083C50.6494 56.3011 35.0477 55.6937 23.5013 52.9511C17.7244 51.5789 13.0162 49.6847 9.67186 47.3855C6.32716 45.0861 4.43923 42.4516 4.06471 39.5972C3.69019 36.7429 4.83454 33.7105 7.47281 30.626C10.1108 27.5419 14.171 24.4972 19.3983 21.6811C29.8462 16.0525 44.7632 11.4408 61.6674 9.22272C78.5716 7.00468 94.1734 7.61204 105.72 10.3547C111.497 11.7269 116.205 13.6211 119.549 15.9203C122.894 18.2197 124.782 20.8542 125.156 23.7085Z" stroke="#9196B4" stroke-width="2"/>
<path d="M37 15C51.1333 10.0035 72.8429 8.00043 89.5 8.50012" stroke="#01A9DC" stroke-width="3"/>
</svg>
