<svg width="6803" height="4910" viewBox="0 0 6803 4910" fill="none" xmlns="http://www.w3.org/2000/svg">
<path d="M0 4910C2412.39 2927 -49.2602 3004.67 107.61 2625.95C264.48 2247.24 494.408 1903.12 784.266 1613.27C1074.12 1323.41 1418.24 1093.48 1796.95 936.61C2175.67 779.74 2581.58 699 2991.5 699C3401.42 699 3807.33 779.74 4186.05 936.61C4564.76 1093.48 4908.88 1323.41 5198.73 1613.27C5488.59 1903.12 4584.52 3180.28 4741.39 3559C4898.26 3937.72 5455.5 4500.08 5455.5 4910H2771L0 4910Z" fill="url(#paint0_linear_517_249)"/>
<path d="M139 4909.5C2951.34 2597.81 81.5734 2688.35 264.451 2246.86C447.329 1805.37 715.38 1404.22 1053.29 1066.31C1391.21 728.407 1792.38 460.367 2233.88 277.495C2675.39 94.6228 3148.6 0.499979 3626.48 0.5C4104.36 0.500021 4577.57 94.6228 5019.08 277.495C5460.58 460.367 5861.75 728.407 6199.66 1066.31C6537.58 1404.22 6575.62 1565.01 6758.5 2006.5C6941.38 2447.99 6499 4431.63 6499 4909.5L3369.42 4909.5L139 4909.5Z" fill="url(#paint1_linear_517_249)"/>
<defs>
<linearGradient id="paint0_linear_517_249" x1="4554.89" y1="6838" x2="2524.89" y2="1802" gradientUnits="userSpaceOnUse">
<stop stop-color="#FF6363" stop-opacity="0.58"/>
<stop offset="1" stop-color="#FFDC60" stop-opacity="0.16"/>
</linearGradient>
<linearGradient id="paint1_linear_517_249" x1="3951.07" y1="7157.58" x2="1584.64" y2="1286.77" gradientUnits="userSpaceOnUse">
<stop stop-color="#A520F7"/>
<stop offset="1" stop-color="#FFBF60" stop-opacity="0.15"/>
</linearGradient>
</defs>
</svg>
